<svg width="452" height="537" viewBox="0 0 452 537" fill="none" xmlns="http://www.w3.org/2000/svg">
<path d="M448.405 336.143C556.115 303.593 659.097 292.28 738.518 300.289C778.229 304.294 812.032 313.128 837.588 326.539C863.142 339.95 880.424 357.922 887.156 380.2C893.889 402.478 889.452 427.014 875.602 452.332C861.751 477.652 838.498 503.728 807.65 529.056C745.957 579.709 653.945 627.323 546.235 659.872C438.525 692.422 335.544 703.735 256.122 695.726C216.411 691.721 182.608 682.887 157.053 669.476C131.499 656.065 114.216 638.093 107.484 615.815C100.752 593.537 105.188 569.001 119.038 543.683C132.889 518.363 156.143 492.287 186.99 466.959C248.683 416.306 340.695 368.692 448.405 336.143Z" stroke="url(#paint0_linear)" stroke-opacity="0.7" stroke-width="0.7"/>
<path d="M451.238 335.314C559.5 304.649 662.663 295.135 741.933 304.529C781.568 309.226 815.212 318.649 840.529 332.504C865.845 346.358 882.811 364.63 889.154 387.022C895.496 409.414 890.632 433.869 876.342 458.941C862.051 484.015 838.347 509.682 807.062 534.467C744.494 584.036 651.665 630.036 543.403 660.701C435.142 691.366 331.978 700.88 252.709 691.486C213.074 686.789 179.43 677.366 154.113 663.511C128.797 649.657 111.831 631.385 105.488 608.993C99.1455 586.601 104.01 562.146 118.299 537.074C132.59 512 156.295 486.333 187.58 461.548C250.148 411.979 342.977 365.979 451.238 335.314Z" stroke="url(#paint1_linear)" stroke-opacity="0.7" stroke-width="0.7"/>
<path d="M454.084 334.534C562.864 305.764 666.178 298.051 745.272 308.827C784.819 314.216 818.293 324.224 843.365 338.519C868.435 352.813 885.08 371.377 891.031 393.877C896.981 416.376 891.691 440.742 876.966 465.562C862.24 490.383 838.091 515.631 806.378 539.867C742.955 588.337 649.337 632.71 540.557 661.481C431.777 690.251 328.463 697.964 249.369 687.187C209.822 681.799 176.348 671.791 151.276 657.496C126.206 643.202 109.561 624.637 103.611 602.138C97.6598 579.638 102.95 555.272 117.675 530.453C132.401 505.632 156.551 480.383 188.263 456.148C251.686 407.678 345.304 363.305 454.084 334.534Z" stroke="url(#paint2_linear)" stroke-opacity="0.7" stroke-width="0.7"/>
<path d="M456.944 333.805C566.209 306.937 669.642 301.029 748.535 313.184C787.983 319.261 821.277 329.852 846.096 344.583C870.913 359.312 887.231 378.164 892.788 400.764C898.345 423.364 892.631 447.634 877.474 472.193C862.317 496.753 837.731 521.576 805.6 545.255C741.341 592.61 646.963 635.343 537.697 662.21C428.431 689.078 324.999 694.987 246.105 682.831C206.658 676.754 173.364 666.163 148.545 651.433C123.728 636.703 107.41 617.851 101.853 595.251C96.2959 572.651 102.01 548.381 117.167 523.822C132.324 499.262 156.91 474.439 189.04 450.76C253.3 403.405 347.678 360.672 456.944 333.805Z" stroke="url(#paint3_linear)" stroke-opacity="0.7" stroke-width="0.7"/>
<path d="M459.816 333.125C569.534 308.169 673.054 304.066 751.723 317.596C791.058 324.362 824.163 335.532 848.72 350.693C873.276 365.853 889.263 384.988 894.425 407.681C899.587 430.375 893.45 454.541 877.867 478.832C862.284 503.123 837.268 527.514 804.729 550.628C739.653 596.855 644.543 637.934 534.825 662.89C425.107 687.847 321.587 691.949 242.918 678.419C203.583 671.654 170.478 660.484 145.921 645.323C121.365 630.162 105.378 611.028 100.216 588.335C95.0543 565.641 101.191 541.475 116.774 517.184C132.357 492.892 157.373 468.502 189.912 445.388C254.988 399.161 350.098 358.082 459.816 333.125Z" stroke="url(#paint4_linear)" stroke-opacity="0.7" stroke-width="0.7"/>
<path d="M462.7 332.496C572.836 309.457 676.412 307.162 754.833 322.063C794.045 329.514 826.949 341.261 851.238 356.848C875.526 372.435 891.176 391.845 895.941 414.625C900.706 437.405 894.148 461.461 878.144 485.476C862.139 509.492 836.702 533.442 803.764 555.984C737.891 601.069 642.079 640.481 531.942 663.519C421.806 686.558 318.23 688.852 239.809 673.951C200.597 666.501 167.693 654.754 143.404 639.167C119.116 623.58 103.466 604.17 98.7008 581.39C93.9357 558.61 100.494 534.554 116.498 510.539C132.503 486.523 157.94 462.573 190.878 440.03C256.751 394.946 352.563 355.534 462.7 332.496Z" stroke="url(#paint5_linear)" stroke-opacity="0.7" stroke-width="0.7"/>
<path d="M465.592 331.916C576.114 310.804 679.715 310.317 757.864 326.584C796.939 334.718 829.633 347.037 853.647 363.046C877.659 379.054 892.968 398.734 897.335 421.594C901.701 444.454 894.725 468.392 878.304 492.123C861.882 515.856 836.031 539.359 802.705 561.323C736.055 605.251 639.569 642.986 529.047 664.098C418.525 685.211 314.925 685.697 236.776 669.43C197.701 661.296 165.007 648.977 140.993 632.968C116.981 616.96 101.672 597.28 97.3052 574.42C92.9384 551.56 99.9152 527.623 116.336 503.891C132.758 480.158 158.609 456.655 191.935 434.691C258.585 390.763 355.07 353.029 465.592 331.916Z" stroke="url(#paint6_linear)" stroke-opacity="0.7" stroke-width="0.7"/>
<path d="M468.497 331.387C579.37 312.207 682.963 313.528 760.817 331.157C799.744 339.972 832.218 352.859 855.949 369.285C879.678 385.71 894.641 405.654 898.608 428.587C902.575 451.519 895.182 475.332 878.349 498.773C861.516 522.216 835.258 545.264 801.554 566.643C734.148 609.401 637.018 645.446 526.145 664.626C415.271 683.807 311.678 682.486 233.825 664.857C194.898 656.042 162.423 643.154 138.693 626.729C114.964 610.304 100.001 590.359 96.0334 567.427C92.0663 544.494 99.4598 520.682 116.292 497.241C133.126 473.798 159.384 450.75 193.088 429.37C260.494 386.613 357.623 350.568 468.497 331.387Z" stroke="url(#paint7_linear)" stroke-opacity="0.7" stroke-width="0.7"/>
<path d="M471.409 330.91C582.6 313.667 686.155 316.796 763.688 335.781C802.456 345.274 834.7 358.726 858.141 375.563C881.579 392.4 896.192 412.602 899.759 435.601C903.325 458.599 895.517 482.279 878.278 505.423C861.038 528.568 834.382 551.155 800.31 571.942C732.167 613.517 634.424 647.861 523.233 665.104C412.041 682.346 308.487 679.217 230.953 660.233C192.186 650.74 159.941 637.287 136.501 620.45C113.062 603.614 98.4493 583.411 94.8829 560.413C91.3166 537.415 99.1246 513.735 116.364 490.591C133.604 467.445 160.26 444.859 194.332 424.071C262.474 382.496 360.218 348.152 471.409 330.91Z" stroke="url(#paint8_linear)" stroke-opacity="0.7" stroke-width="0.7"/>
<path d="M474.329 330.483C585.805 315.184 689.288 320.119 766.479 340.455C805.075 350.622 837.08 364.635 860.222 381.879C883.364 399.122 897.622 419.577 900.786 442.634C903.951 465.691 895.731 489.231 878.09 512.07C860.449 534.911 833.403 557.029 798.973 577.219C730.115 617.598 631.788 650.231 520.312 665.531C408.837 680.83 305.353 675.894 228.162 655.559C189.566 645.391 157.562 631.378 134.419 614.134C111.277 596.892 97.0194 576.437 93.855 553.38C90.6905 530.323 98.9106 506.783 116.551 483.943C134.192 461.102 161.238 438.985 195.668 418.795C264.526 378.415 362.854 345.782 474.329 330.483Z" stroke="url(#paint9_linear)" stroke-opacity="0.7" stroke-width="0.7"/>
<path d="M477.257 330.108C588.982 316.756 692.364 323.497 769.188 345.176C807.601 356.016 839.356 370.586 862.194 388.231C885.031 405.875 898.93 426.575 901.692 449.684C904.453 472.793 895.824 496.186 877.787 518.714C859.75 541.244 832.322 562.886 797.545 582.472C727.993 621.643 629.111 652.555 517.385 665.907C405.66 679.258 302.278 672.517 225.454 650.838C187.041 639.998 155.286 625.429 132.448 607.784C109.611 590.14 95.7119 569.439 92.9504 546.33C90.1888 523.222 98.8185 499.829 116.855 477.301C134.892 454.771 162.32 433.129 197.097 413.543C266.649 374.371 365.531 343.459 477.257 330.108Z" stroke="url(#paint10_linear)" stroke-opacity="0.7" stroke-width="0.7"/>
<path d="M480.19 329.783C592.131 318.383 695.38 326.928 771.814 349.944C810.031 361.453 841.528 376.574 864.054 394.615C886.58 412.655 900.115 433.595 902.473 456.749C904.831 479.902 895.794 503.14 877.368 525.351C858.94 547.562 831.139 568.722 796.025 587.699C725.8 625.65 626.393 654.832 514.452 666.231C402.51 677.631 299.262 669.087 222.828 646.07C184.611 634.561 153.114 619.44 130.587 601.399C108.062 583.359 94.5263 562.419 92.1685 539.266C89.8107 516.112 98.8473 492.874 117.274 470.664C135.702 448.452 163.503 427.292 198.617 408.316C268.842 370.364 368.248 341.182 480.19 329.783Z" stroke="url(#paint11_linear)" stroke-opacity="0.7" stroke-width="0.7"/>
<path d="M483.129 329.509C595.252 320.065 698.336 330.41 774.356 354.757C812.367 366.931 843.595 382.6 865.803 401.031C888.01 419.462 901.178 440.634 903.132 463.825C905.085 487.016 895.644 510.094 876.833 531.979C858.02 553.866 829.854 574.537 794.415 592.898C723.538 629.618 623.637 657.06 511.514 666.504C399.39 675.949 296.307 665.604 220.286 641.257C182.275 629.083 151.048 613.414 128.839 594.982C106.632 576.552 93.4638 555.379 91.5104 532.188C89.557 508.997 98.9978 485.92 117.809 464.035C136.622 442.148 164.789 421.476 200.228 403.116C271.104 366.396 371.005 338.953 483.129 329.509Z" stroke="url(#paint12_linear)" stroke-opacity="0.7" stroke-width="0.7"/>
<path d="M486.07 329.287C598.341 321.801 701.229 333.944 776.813 359.614C814.605 372.449 845.555 388.661 867.438 407.477C889.32 426.292 902.117 447.691 903.665 470.913C905.214 494.134 895.371 517.043 876.181 538.597C856.989 560.152 828.466 580.329 792.712 598.068C721.205 633.546 620.841 659.24 508.569 666.726C396.298 674.212 293.411 662.07 217.827 636.4C180.034 623.564 149.085 607.353 127.201 588.537C105.319 569.722 92.5225 548.322 90.9742 525.101C89.4259 501.879 99.268 478.97 118.459 457.416C137.65 435.861 166.173 415.684 201.927 397.945C273.434 362.468 373.799 336.773 486.07 329.287Z" stroke="url(#paint13_linear)" stroke-opacity="0.7" stroke-width="0.7"/>
<path d="M489.017 329.117C601.401 323.591 704.061 337.527 779.186 364.513C816.749 378.006 847.41 394.755 868.962 413.95C890.513 433.144 902.934 454.764 904.077 478.009C905.219 501.254 894.979 523.988 875.415 545.203C855.85 566.42 826.979 586.096 790.921 603.208C718.806 637.433 618.008 661.372 505.624 666.897C393.239 672.422 290.579 658.486 215.455 631.501C177.892 618.008 147.23 601.259 125.678 582.063C104.128 562.869 91.7065 541.25 90.5637 518.005C89.4208 494.76 99.6613 472.026 119.225 450.811C138.79 429.594 167.661 409.918 203.719 392.805C275.834 358.581 376.632 334.642 489.017 329.117Z" stroke="url(#paint14_linear)" stroke-opacity="0.7" stroke-width="0.7"/>
<path d="M491.966 328.998C604.43 325.435 706.831 341.16 781.473 369.453C818.795 383.599 849.159 400.881 870.373 420.449C891.585 440.017 903.627 461.85 904.364 485.111C905.101 508.373 894.465 530.924 874.534 551.795C854.602 572.667 825.392 591.836 789.041 608.317C716.339 641.277 615.139 663.454 502.675 667.017C390.211 670.58 287.81 654.854 213.168 626.562C175.846 612.415 145.481 595.134 124.268 575.565C103.056 555.998 91.0138 534.165 90.2769 510.903C89.5399 487.642 100.176 465.09 120.107 444.22C140.039 423.348 169.249 404.178 205.6 387.698C278.302 354.737 379.502 332.561 491.966 328.998Z" stroke="url(#paint15_linear)" stroke-opacity="0.7" stroke-width="0.7"/>
<path d="M494.917 328.93C607.426 327.33 709.537 344.841 783.673 374.431C820.743 389.227 850.801 407.036 871.67 426.972C892.537 446.906 904.196 468.946 904.527 492.217C904.858 515.488 893.831 537.85 873.538 558.37C853.245 578.891 823.705 597.547 787.071 613.391C713.806 645.078 612.234 665.484 499.725 667.084C387.216 668.684 285.105 651.173 210.968 621.583C173.899 606.787 143.84 588.978 122.972 569.042C102.104 549.108 90.4451 527.068 90.1142 503.797C89.7833 480.526 100.811 458.164 121.103 437.644C141.397 417.123 170.937 398.467 207.57 382.623C280.836 350.936 382.407 330.53 494.917 328.93Z" stroke="url(#paint16_linear)" stroke-opacity="0.7" stroke-width="0.7"/>
<path d="M497.868 328.914C610.387 329.278 712.177 348.568 785.786 379.448C822.592 394.888 852.335 413.219 872.852 433.516C893.369 453.812 904.641 476.052 904.566 499.325C904.491 522.598 893.075 544.764 872.427 564.927C851.779 585.09 821.918 603.229 785.013 618.431C711.206 648.834 609.293 667.465 496.773 667.101C384.254 666.737 282.464 647.447 208.855 616.567C172.049 601.126 142.306 582.795 121.789 562.499C101.272 542.203 89.9996 519.963 90.0749 496.69C90.1502 473.417 101.566 451.25 122.214 431.088C142.862 410.924 172.723 392.786 209.628 377.584C283.435 347.181 385.348 328.55 497.868 328.914Z" stroke="url(#paint17_linear)" stroke-opacity="0.7" stroke-width="0.7"/>
<path d="M500.818 328.949C613.315 331.276 714.752 352.34 787.811 384.5C824.342 400.58 853.76 419.428 873.921 440.079C894.08 460.73 904.962 483.163 904.481 506.431C904 529.7 892.198 551.664 871.202 571.463C850.205 591.263 820.032 608.877 782.868 623.433C708.541 652.543 606.319 669.393 493.822 667.065C381.326 664.737 279.888 643.674 206.829 611.514C170.299 595.433 140.88 576.586 120.72 555.934C100.561 535.284 89.6784 512.85 90.1599 489.582C90.6413 466.314 102.443 444.35 123.439 424.551C144.436 404.751 174.609 387.136 211.773 372.581C286.1 343.471 388.322 326.621 500.818 328.949Z" stroke="url(#paint18_linear)" stroke-opacity="0.7" stroke-width="0.7"/>
<path d="M503.768 329.035C616.207 333.326 717.262 356.157 789.748 389.587C825.992 406.302 855.078 425.66 874.874 446.66C894.67 467.66 905.159 490.28 904.272 513.536C903.385 536.792 891.202 558.547 869.863 577.976C848.524 597.407 818.048 614.492 780.635 628.397C705.812 656.206 603.311 671.268 490.873 666.978C378.434 662.687 277.379 639.857 204.893 606.426C168.649 589.711 139.563 570.353 119.767 549.353C99.9709 528.353 89.4814 505.733 90.3689 482.477C91.2564 459.221 103.439 437.466 124.778 418.037C146.117 398.606 176.593 381.521 214.006 367.616C288.829 339.808 391.33 324.745 503.768 329.035Z" stroke="url(#paint19_linear)" stroke-opacity="0.7" stroke-width="0.7"/>
<path d="M506.717 329.174C619.063 335.427 719.704 360.017 791.596 394.707C827.543 412.053 856.286 431.915 875.713 453.258C895.139 474.6 905.232 497.399 903.939 520.636C902.646 543.874 890.085 565.412 868.411 584.467C846.736 603.522 815.966 620.073 778.317 633.322C703.019 659.821 600.271 673.093 487.925 666.84C375.578 660.588 274.937 635.997 203.045 601.307C167.098 583.962 138.355 564.099 118.928 542.756C99.502 521.415 89.4089 498.615 90.7021 475.378C91.9953 452.141 104.556 430.602 126.23 411.548C147.906 392.492 178.675 375.942 216.325 362.692C291.622 336.194 394.37 322.922 506.717 329.174Z" stroke="url(#paint20_linear)" stroke-opacity="0.7" stroke-width="0.7"/>
<path d="M509.662 329.364C621.882 337.576 722.078 363.919 793.354 399.859C828.993 417.829 857.385 438.19 876.437 459.869C895.487 481.546 905.181 504.518 903.482 527.729C901.784 550.94 888.849 572.256 866.846 590.93C844.841 609.604 813.787 625.615 775.912 638.205C700.164 663.386 597.2 674.862 484.98 666.65C372.759 658.438 272.563 632.095 201.287 596.155C165.649 578.185 137.257 557.824 118.205 536.145C99.1541 514.468 89.4604 491.496 91.159 468.285C92.8575 445.074 105.792 423.757 127.796 405.084C149.8 386.41 180.854 370.399 218.729 357.809C294.477 332.628 397.441 321.152 509.662 329.364Z" stroke="url(#paint21_linear)" stroke-opacity="0.7" stroke-width="0.7"/>
<path d="M512.602 329.605C624.662 339.774 724.384 367.862 795.021 405.04C830.341 423.629 858.373 444.483 877.044 466.491C895.713 488.497 905.005 511.635 902.901 534.813C900.798 557.991 887.493 579.078 865.167 597.364C842.84 615.652 811.511 631.118 773.422 643.046C697.246 666.901 594.098 676.578 482.038 666.409C369.978 656.24 270.256 628.151 199.619 590.974C164.299 572.384 136.267 551.531 117.596 529.523C98.9269 507.516 89.6356 484.378 91.739 461.201C93.8424 438.023 107.147 416.935 129.473 398.649C151.8 380.362 183.129 364.895 221.218 352.968C297.394 329.113 400.542 319.435 512.602 329.605Z" stroke="url(#paint22_linear)" stroke-opacity="0.7" stroke-width="0.7"/>
<path d="M515.539 329.897C627.405 342.02 726.62 371.845 796.599 410.25C831.588 429.453 859.252 450.792 877.536 473.123C895.819 495.452 904.705 518.748 902.197 541.886C899.69 565.023 886.019 585.875 863.377 603.769C840.734 621.664 809.14 636.581 770.849 647.842C694.268 670.364 590.966 678.24 479.101 666.117C367.236 653.993 268.02 624.169 198.042 585.764C163.052 566.561 135.388 545.221 117.104 522.891C98.8216 500.562 89.9356 477.265 92.4431 454.128C94.9507 430.99 108.621 410.138 131.263 392.244C153.906 374.35 185.5 359.432 223.791 348.171C300.372 325.649 403.674 317.773 515.539 329.897Z" stroke="url(#paint23_linear)" stroke-opacity="0.7" stroke-width="0.7"/>
<path d="M518.471 330.241C630.108 344.315 728.788 375.866 798.085 415.486C832.734 435.297 860.022 457.116 877.913 479.762C895.803 502.407 904.281 525.855 901.37 548.945C898.459 572.036 884.427 592.646 861.476 610.142C838.524 627.639 806.675 642.003 768.193 652.594C691.231 673.775 587.807 679.847 476.171 665.773C364.534 651.699 265.853 620.148 196.556 580.528C161.907 560.717 134.62 538.898 116.728 516.252C98.8384 493.607 90.3602 470.159 93.2712 447.069C96.1822 423.978 110.215 403.368 133.165 385.872C156.117 368.375 187.966 354.011 226.448 343.42C303.411 322.239 406.834 316.167 518.471 330.241Z" stroke="url(#paint24_linear)" stroke-opacity="0.7" stroke-width="0.7"/>
<path d="M521.395 330.636C632.769 346.656 730.883 379.925 799.478 420.748C833.777 441.161 860.679 463.453 878.172 486.408C895.665 509.361 903.732 532.954 900.419 555.99C897.105 579.026 882.715 599.388 859.463 616.48C836.209 633.574 804.114 647.38 765.453 657.298C688.133 677.133 584.619 681.399 473.245 665.379C361.871 649.359 263.756 616.09 195.161 575.266C160.863 554.854 133.96 532.562 116.467 509.607C98.9748 486.654 90.9072 463.061 94.2207 440.025C97.5342 416.989 111.924 396.627 135.177 379.534C158.431 362.441 190.525 348.635 229.186 338.717C306.507 318.882 410.02 314.616 521.395 330.636Z" stroke="url(#paint25_linear)" stroke-opacity="0.7" stroke-width="0.7"/>
<path d="M524.313 331.081C635.391 349.043 732.91 384.019 800.782 426.034C834.719 447.042 861.228 469.8 878.318 493.056C895.407 516.312 903.061 540.041 899.346 563.016C895.631 585.991 880.888 606.098 857.341 622.783C833.792 639.468 801.461 652.712 762.633 661.953C684.978 680.436 581.406 682.895 470.328 664.933C359.251 646.972 261.732 611.996 193.86 569.981C159.923 548.973 133.413 526.215 116.324 502.959C99.2346 479.703 91.58 455.974 95.295 432.999C99.0101 410.024 113.753 389.916 137.301 373.232C160.849 356.547 193.18 343.303 232.008 334.062C309.663 315.579 413.235 313.12 524.313 331.081Z" stroke="url(#paint26_linear)" stroke-opacity="0.7" stroke-width="0.7"/>
<path d="M527.222 331.577C637.969 351.474 734.863 388.147 801.991 431.34C835.556 452.937 861.664 476.154 878.346 499.705C895.026 523.255 902.266 547.115 898.15 570.021C894.035 592.928 878.943 612.775 855.108 629.046C831.272 645.318 798.715 657.995 759.731 666.558C681.766 683.682 578.166 684.333 467.419 664.436C356.672 644.539 259.778 607.866 192.649 564.673C159.084 543.076 132.976 519.859 116.295 496.307C99.6143 472.758 92.375 448.898 96.4904 425.992C100.606 403.085 115.698 383.238 139.533 366.967C163.369 350.695 195.926 338.018 234.91 329.455C312.875 312.331 416.475 311.68 527.222 331.577Z" stroke="url(#paint27_linear)" stroke-opacity="0.7" stroke-width="0.7"/>
<path d="M530.122 332.125C640.505 353.952 736.744 392.31 803.108 436.668C836.291 458.847 861.99 482.517 878.258 506.355C894.525 530.193 901.347 554.175 896.832 577.006C892.318 599.837 876.882 619.418 852.767 635.271C828.65 651.124 795.877 663.231 756.75 671.112C678.497 686.873 574.902 685.716 464.519 663.889C354.136 642.062 257.897 603.704 191.532 559.346C158.349 537.167 132.65 513.497 116.383 489.658C100.116 465.821 93.2938 441.839 97.8084 419.008C102.323 396.177 117.759 376.596 141.874 360.743C165.991 344.89 198.764 332.783 237.891 324.902C316.144 309.14 419.739 310.298 530.122 332.125Z" stroke="url(#paint28_linear)" stroke-opacity="0.7" stroke-width="0.7"/>
<path d="M533.012 332.723C642.997 356.473 738.552 396.505 804.133 442.014C836.923 464.769 862.205 488.884 878.055 513.003C893.903 537.121 900.305 561.218 895.393 583.967C890.481 606.716 874.705 626.025 850.317 641.454C825.927 656.884 792.948 668.417 753.689 675.614C675.173 690.007 571.614 687.042 461.629 663.292C351.644 639.542 256.089 599.51 190.509 554.001C157.718 531.245 132.436 507.131 116.586 483.012C100.738 458.894 94.3358 434.796 99.2482 412.048C104.161 389.299 119.936 369.99 144.324 354.561C168.714 339.131 201.693 327.598 240.952 320.401C319.468 306.008 423.027 308.973 533.012 332.723Z" stroke="url(#paint29_linear)" stroke-opacity="0.7" stroke-width="0.7"/>
<path d="M535.891 333.37C645.446 359.037 740.287 400.73 805.063 447.377C837.452 470.701 862.309 495.253 877.735 519.645C893.16 544.035 899.141 568.241 893.832 590.901C888.524 613.56 872.414 632.591 847.76 647.592C823.105 662.594 789.929 673.55 750.551 680.06C671.796 693.081 568.304 688.309 458.75 662.643C349.196 636.977 254.354 595.284 189.578 548.637C157.19 525.313 132.332 500.761 116.906 476.369C101.481 451.978 95.5005 427.772 100.809 405.113C106.118 382.453 122.228 363.423 146.882 348.422C171.537 333.42 204.713 322.464 244.091 315.953C322.846 302.932 426.337 307.704 535.891 333.37Z" stroke="url(#paint30_linear)" stroke-opacity="0.7" stroke-width="0.7"/>
<path d="M538.759 334.069C647.849 361.643 741.948 404.985 805.9 452.756C837.877 476.641 862.302 501.623 877.3 526.281C892.297 550.937 897.854 575.243 892.151 597.807C886.448 620.37 870.008 639.117 845.096 653.685C820.183 668.255 786.821 678.63 747.335 684.452C668.365 696.097 564.972 689.519 455.883 661.945C346.794 634.371 252.694 591.029 188.742 543.259C156.765 519.373 132.34 494.391 117.342 469.733C102.345 445.077 96.7879 420.771 102.491 398.207C108.194 375.644 124.634 356.897 149.546 342.329C174.459 327.759 207.821 317.384 247.307 311.562C326.277 299.917 429.67 306.495 538.759 334.069Z" stroke="url(#paint31_linear)" stroke-opacity="0.7" stroke-width="0.7"/>
<path d="M541.613 334.817C650.205 364.291 743.534 409.269 806.643 458.148C838.198 482.588 862.183 507.993 876.748 532.908C891.313 557.823 896.445 582.222 890.349 604.683C884.252 627.143 867.488 645.6 842.326 659.731C817.162 673.864 783.624 683.655 744.043 688.788C664.881 699.052 561.619 690.671 453.028 661.197C344.436 631.724 251.107 586.746 187.999 537.867C156.444 513.426 132.458 488.022 117.893 463.106C103.329 438.192 98.1962 413.792 104.292 391.332C110.389 368.871 127.153 350.415 152.315 336.283C177.479 322.151 211.017 312.359 250.599 307.227C329.76 296.963 433.022 305.343 541.613 334.817Z" stroke="url(#paint32_linear)" stroke-opacity="0.7" stroke-width="0.7"/>
<path d="M544.455 335.615C652.515 366.98 745.045 413.579 807.291 463.552C838.415 488.54 861.953 514.359 876.081 539.525C890.208 564.689 894.914 589.175 888.427 611.526C881.94 633.876 864.856 652.037 839.451 665.728C814.044 679.419 780.34 688.624 740.675 693.064C661.347 701.946 558.247 691.764 450.186 660.399C342.125 629.035 249.596 582.435 187.35 532.462C156.226 507.475 132.688 481.655 118.56 456.489C104.432 431.325 99.7267 406.839 106.214 384.489C112.701 362.138 129.785 343.977 155.19 330.287C180.597 316.595 214.301 307.391 253.966 302.95C333.294 294.069 436.394 304.25 544.455 335.615Z" stroke="url(#paint33_linear)" stroke-opacity="0.7" stroke-width="0.7"/>
<path d="M547.281 336.462C654.778 369.707 746.48 417.915 807.845 468.967C838.527 494.493 861.612 520.719 875.298 546.128C888.984 571.535 893.262 596.099 886.386 618.333C879.509 640.568 862.111 658.428 836.471 671.673C810.83 684.918 776.97 693.533 737.234 697.281C657.762 704.776 554.856 692.797 447.359 659.551C339.862 626.306 248.16 578.098 186.795 527.046C156.113 501.52 133.028 475.294 119.342 449.885C105.655 424.478 101.378 399.914 108.254 377.68C115.131 355.445 132.529 337.585 158.169 324.34C183.81 311.095 217.67 302.48 257.406 298.732C336.878 291.236 439.784 303.216 547.281 336.462Z" stroke="url(#paint34_linear)" stroke-opacity="0.7" stroke-width="0.7"/>
<path d="M550.093 337.359C656.993 372.475 747.84 422.276 808.304 474.391C838.536 500.449 861.159 527.074 874.401 552.718C887.641 578.36 891.49 602.995 884.226 625.106C876.963 647.216 859.255 664.77 833.388 677.566C807.519 690.362 773.515 698.384 733.719 701.438C654.129 707.546 551.447 693.772 444.547 658.655C337.646 623.539 246.799 573.738 186.335 521.623C156.103 495.565 133.48 468.94 120.239 443.296C106.998 417.654 103.15 393.019 110.413 370.908C117.677 348.798 135.384 331.244 161.251 318.448C187.12 305.652 221.125 297.629 260.92 294.576C340.51 288.468 443.192 302.242 550.093 337.359Z" stroke="url(#paint35_linear)" stroke-opacity="0.7" stroke-width="0.7"/>
<path d="M552.889 338.304C659.16 375.281 749.124 426.66 808.669 479.822C838.443 506.404 860.597 533.42 873.389 559.291C886.18 585.16 889.598 609.858 881.95 631.839C874.302 653.82 856.291 671.062 830.204 683.404C804.116 695.746 769.976 703.174 730.133 705.533C650.449 710.251 548.023 694.687 441.752 657.71C335.481 620.733 245.517 569.354 185.971 516.192C156.198 489.61 134.043 462.595 121.252 436.724C108.461 410.854 105.043 386.156 112.691 364.175C120.339 342.195 138.35 324.953 164.437 312.611C190.525 300.268 224.664 292.84 264.507 290.481C344.192 285.764 446.618 301.327 552.889 338.304Z" stroke="url(#paint36_linear)" stroke-opacity="0.7" stroke-width="0.7"/>
<path d="M555.668 339.299C661.277 378.125 750.331 431.065 808.939 485.259C838.244 512.356 859.924 539.754 872.262 565.845C884.6 591.933 887.586 616.688 879.556 638.531C871.525 660.375 853.216 677.3 826.918 689.185C800.618 701.071 766.354 707.902 726.476 709.565C646.721 712.891 544.583 695.542 438.973 656.716C333.364 617.89 244.31 564.949 185.702 510.755C156.397 483.658 134.717 456.26 122.379 430.17C110.041 404.081 107.055 379.327 115.085 357.483C123.116 335.639 141.425 318.714 167.723 306.829C194.023 294.944 228.287 288.113 268.165 286.45C347.92 283.124 450.058 300.472 555.668 339.299Z" stroke="url(#paint37_linear)" stroke-opacity="0.7" stroke-width="0.7"/>
<path d="M558.429 340.341C663.345 381.004 751.461 435.491 809.114 490.699C837.942 518.304 859.14 546.076 871.021 572.378C882.902 598.678 885.455 623.48 877.045 645.181C868.634 666.881 850.033 683.484 823.531 694.908C797.028 706.332 762.65 712.565 722.749 713.531C642.948 715.465 541.128 696.336 436.212 655.673C331.296 615.01 243.18 560.523 185.527 505.315C156.699 477.71 135.501 449.938 123.62 423.636C111.739 397.336 109.185 372.533 117.596 350.833C126.007 329.133 144.608 312.53 171.11 301.106C197.613 289.681 231.991 283.449 271.892 282.482C351.693 280.549 453.513 299.677 558.429 340.341Z" stroke="url(#paint38_linear)" stroke-opacity="0.7" stroke-width="0.7"/>
<path d="M561.171 341.431C665.361 383.92 752.513 439.936 809.194 496.142C837.535 524.245 858.246 552.384 869.666 578.889C881.086 605.392 883.206 630.235 874.418 651.785C865.63 673.336 846.741 689.612 820.045 700.571C793.346 711.532 758.865 717.163 718.953 717.433C639.13 717.974 537.66 697.071 433.469 654.583C329.279 612.095 242.127 556.078 185.446 499.872C157.105 471.769 136.394 443.631 124.974 417.126C113.554 390.622 111.434 365.779 120.222 344.229C129.01 322.679 147.899 306.403 174.595 295.443C201.294 284.483 235.775 278.851 275.687 278.581C355.509 278.04 456.98 298.943 561.171 341.431Z" stroke="url(#paint39_linear)" stroke-opacity="0.7" stroke-width="0.7"/>
<path d="M563.895 342.57C667.327 386.87 753.488 444.398 809.18 501.585C837.027 530.179 857.243 558.674 868.199 585.375C879.154 612.073 880.841 636.95 871.678 658.343C862.515 679.737 843.345 695.681 816.461 706.173C789.576 716.665 755.001 721.694 715.09 721.268C635.271 720.415 534.18 697.745 430.747 653.445C327.315 609.144 241.154 551.616 185.462 494.429C157.616 465.835 137.399 437.34 126.443 410.64C115.488 383.941 113.801 359.064 122.964 337.671C132.127 316.277 151.297 300.333 178.181 289.841C205.067 279.349 239.641 274.32 279.552 274.746C359.371 275.599 460.462 298.269 563.895 342.57Z" stroke="url(#paint40_linear)" stroke-opacity="0.7" stroke-width="0.7"/>
<path d="M566.597 343.755C669.241 389.853 754.384 448.877 809.07 507.027C836.413 536.102 856.129 564.946 866.617 591.833C877.105 618.719 878.357 643.621 868.822 664.852C859.287 686.082 839.842 701.689 812.779 711.71C785.714 721.732 751.057 726.157 711.16 725.034C631.368 722.788 530.688 698.357 428.044 652.258C325.4 606.16 240.257 547.136 185.571 488.986C158.228 459.911 138.512 431.067 128.024 404.18C117.536 377.294 116.284 352.392 125.819 331.161C135.354 309.931 154.799 294.324 181.862 284.303C208.927 274.281 243.584 269.856 283.481 270.979C363.273 273.225 463.953 297.656 566.597 343.755Z" stroke="url(#paint41_linear)" stroke-opacity="0.7" stroke-width="0.7"/>
<path d="M569.278 344.988C671.102 392.87 755.203 453.371 808.865 512.467C835.696 542.015 854.906 571.199 864.923 598.265C874.94 625.33 875.757 650.25 865.854 671.311C855.95 692.371 836.235 707.636 809.001 717.184C781.766 726.732 747.037 730.551 707.166 728.732C627.424 725.094 527.187 698.909 425.363 651.026C323.539 603.144 239.438 542.643 185.776 483.547C158.945 453.999 139.735 424.816 129.718 397.749C119.701 370.685 118.884 345.764 128.787 324.704C138.691 303.643 158.406 288.378 185.64 278.83C212.875 269.282 247.604 265.463 287.475 267.282C367.216 270.92 467.454 297.105 569.278 344.988Z" stroke="url(#paint42_linear)" stroke-opacity="0.7" stroke-width="0.7"/>
<path d="M571.938 346.266C672.91 395.919 755.942 457.878 808.565 517.901C834.876 547.913 853.574 577.428 863.117 604.665C872.66 631.9 873.043 656.831 862.773 677.715C852.503 698.6 832.525 713.519 805.128 722.59C777.73 731.661 742.94 734.873 703.107 732.359C623.441 727.33 523.676 699.4 422.703 649.747C321.73 600.094 238.698 538.135 186.076 478.112C159.764 448.1 141.067 418.586 131.523 391.349C121.98 364.113 121.598 339.182 131.868 318.298C142.138 297.413 162.116 282.495 189.512 273.424C216.91 264.352 251.7 261.14 291.534 263.655C371.199 268.684 470.965 296.614 571.938 346.266Z" stroke="url(#paint43_linear)" stroke-opacity="0.7" stroke-width="0.7"/>
<path d="M574.575 347.591C674.666 398.999 756.604 462.398 808.171 523.33C833.955 553.796 852.134 583.633 861.201 611.032C870.267 638.43 870.214 663.364 859.581 684.066C848.948 704.768 828.713 719.336 801.163 727.927C773.611 736.519 738.769 739.123 698.986 735.914C619.42 729.495 520.157 699.828 420.067 648.421C319.976 597.014 238.038 533.615 186.471 472.683C160.687 442.216 142.508 412.38 133.441 384.98C124.375 357.583 124.428 332.649 135.06 311.947C145.693 291.245 165.928 276.677 193.479 268.086C221.031 259.494 255.872 256.889 295.656 260.099C375.221 266.517 474.484 296.184 574.575 347.591Z" stroke="url(#paint44_linear)" stroke-opacity="0.7" stroke-width="0.7"/>
<path d="M577.188 348.964C676.366 402.11 757.185 466.929 807.681 528.752C832.929 559.664 850.585 589.813 859.172 617.366C867.759 644.918 867.271 669.847 856.279 690.361C845.286 710.874 824.8 725.087 797.103 733.196C769.406 741.305 734.524 743.301 694.803 739.398C615.361 731.592 516.631 700.197 417.453 647.051C318.275 593.905 237.456 529.085 186.96 467.263C161.712 436.351 144.056 406.202 135.469 378.648C126.882 351.096 127.37 326.167 138.363 305.654C149.355 285.14 169.842 270.928 197.538 262.819C225.236 254.709 260.117 252.713 299.838 256.616C379.28 264.422 478.01 295.817 577.188 348.964Z" stroke="url(#paint45_linear)" stroke-opacity="0.7" stroke-width="0.7"/>
<path d="M579.777 350.38C678.012 405.249 757.688 471.469 807.097 534.164C831.802 565.512 848.929 595.964 857.034 623.663C865.139 651.361 864.216 676.277 852.867 696.596C841.518 716.915 820.786 730.767 792.953 738.392C765.118 746.017 730.207 747.404 690.56 742.808C611.267 733.617 513.099 700.503 414.864 645.634C316.628 590.765 236.953 524.545 187.544 461.851C162.839 430.503 145.712 400.05 137.607 372.351C129.502 344.653 130.425 319.737 141.774 299.418C153.123 279.1 173.854 265.247 201.688 257.623C229.523 249.998 264.434 248.611 304.081 253.206C383.374 262.398 481.541 295.511 579.777 350.38Z" stroke="url(#paint46_linear)" stroke-opacity="0.7" stroke-width="0.7"/>
<path d="M582.341 351.842C679.604 408.417 758.112 476.017 806.419 539.565C830.574 571.339 847.166 602.086 854.787 629.922C862.407 657.757 861.049 682.654 849.347 702.771C837.646 722.889 816.676 736.377 788.713 743.515C760.749 750.653 725.82 751.43 686.258 746.143C607.138 735.57 509.564 700.748 412.301 644.173C315.037 587.598 236.53 519.997 188.222 456.45C164.068 424.676 147.475 393.929 139.855 366.093C132.235 338.258 133.593 313.361 145.295 293.244C156.996 273.126 177.966 259.638 205.929 252.5C233.893 245.362 268.822 244.584 308.383 249.871C387.504 260.445 485.078 295.267 582.341 351.842Z" stroke="url(#paint47_linear)" stroke-opacity="0.7" stroke-width="0.7"/>
<path d="M584.879 353.347C681.14 411.611 758.456 480.571 805.647 544.952C829.243 577.143 845.296 608.175 852.43 636.14C859.563 664.104 857.771 688.973 845.72 708.883C833.669 728.793 812.467 741.914 784.384 748.562C756.3 755.211 721.362 755.379 681.899 749.402C602.975 737.449 506.023 700.93 409.762 642.666C313.501 584.402 236.186 515.442 188.995 451.061C165.399 418.87 149.345 387.838 142.212 359.873C135.079 331.91 136.871 307.041 148.922 287.13C160.973 267.22 182.175 254.1 210.257 247.451C238.342 240.802 273.28 240.634 312.742 246.611C391.666 258.564 488.618 295.083 584.879 353.347Z" stroke="url(#paint48_linear)" stroke-opacity="0.7" stroke-width="0.7"/>
<path d="M587.39 354.898C682.62 414.833 758.72 485.132 804.78 550.327C827.811 582.925 843.321 614.232 849.965 642.318C856.609 670.401 854.383 695.235 841.986 714.932C829.59 734.629 808.162 747.378 779.967 753.535C751.771 759.693 716.836 759.251 677.483 752.586C598.78 739.258 502.48 701.052 407.251 641.117C312.022 581.182 235.921 510.883 189.861 445.688C166.83 413.09 151.321 381.783 144.676 353.698C138.032 325.614 140.258 300.78 152.655 281.083C165.052 261.386 186.48 248.638 214.674 242.48C242.87 236.323 277.805 236.764 317.158 243.429C395.861 256.758 492.161 294.963 587.39 354.898Z" stroke="url(#paint49_linear)" stroke-opacity="0.7" stroke-width="0.7"/>
<path d="M589.875 356.492C684.043 418.08 758.905 489.696 803.821 555.685C826.279 588.68 841.24 620.253 847.393 648.45C853.546 676.645 850.887 701.437 838.148 720.914C825.41 740.392 803.763 752.764 775.465 758.429C747.166 764.093 712.243 763.042 673.013 755.692C594.554 740.991 498.936 701.111 404.767 639.523C310.599 577.935 235.736 506.319 190.821 440.33C168.363 407.335 153.402 375.762 147.249 347.565C141.096 319.37 143.755 294.578 156.494 275.101C169.232 255.623 190.879 243.251 219.177 237.586C247.476 231.922 282.399 232.973 321.629 240.323C400.088 255.023 495.706 294.904 589.875 356.492Z" stroke="url(#paint50_linear)" stroke-opacity="0.7" stroke-width="0.7"/>
<path d="M592.33 358.128C685.41 421.35 759.01 494.262 802.767 561.025C824.646 594.407 839.054 626.236 844.714 654.536C850.373 682.835 847.282 707.576 834.206 726.828C821.129 746.08 799.269 758.073 770.877 763.243C742.484 768.413 707.585 766.752 668.489 758.718C590.299 742.651 495.391 701.108 402.311 637.886C309.232 574.664 235.631 501.752 191.874 434.989C169.995 401.607 155.588 369.778 149.927 341.478C144.268 313.179 147.359 288.438 160.435 269.186C173.512 249.934 195.372 237.941 223.764 232.771C252.158 227.601 287.056 229.262 326.152 237.296C404.343 253.363 499.25 294.906 592.33 358.128Z" stroke="url(#paint51_linear)" stroke-opacity="0.7" stroke-width="0.7"/>
<path d="M594.756 359.808C686.718 424.645 759.036 498.83 801.621 566.346C822.914 600.105 836.764 632.181 841.929 660.576C847.094 688.968 843.571 713.652 830.161 732.673C816.75 751.694 794.684 763.304 766.206 767.977C737.727 772.651 702.862 770.381 663.912 761.666C586.015 744.237 491.846 701.044 399.884 636.207C307.922 571.37 235.605 497.184 193.02 429.668C171.727 395.91 157.877 363.834 152.712 335.439C147.547 307.046 151.069 282.363 164.48 263.342C177.89 244.321 199.956 232.711 228.434 228.038C256.914 223.364 291.778 225.634 330.728 234.349C408.626 251.778 502.794 294.971 594.756 359.808Z" stroke="url(#paint52_linear)" stroke-opacity="0.7" stroke-width="0.7"/>
<path d="M597.154 361.529C687.971 427.961 758.982 503.397 800.382 571.646C821.083 605.771 834.371 638.084 839.04 666.565C843.708 695.043 839.756 719.662 826.015 738.446C812.275 757.23 790.01 768.453 761.454 772.628C732.898 776.804 698.078 773.926 659.286 764.533C581.704 745.747 488.304 700.917 397.488 634.485C306.671 568.053 235.66 492.616 194.26 424.368C173.559 390.242 160.271 357.93 155.602 329.449C150.934 300.971 154.886 276.352 168.627 257.568C182.367 238.784 204.632 227.561 233.187 223.386C261.744 219.21 296.564 222.088 335.356 231.481C412.938 250.267 506.337 295.097 597.154 361.529Z" stroke="url(#paint53_linear)" stroke-opacity="0.7" stroke-width="0.7"/>
<path d="M599.52 363.292C689.163 431.299 758.847 507.964 799.05 576.925C819.152 611.406 831.874 643.945 836.045 672.503C840.216 701.059 835.834 725.605 821.768 744.146C807.702 762.687 785.245 773.52 756.621 777.196C727.995 780.873 693.231 777.388 654.609 767.319C577.367 747.182 484.764 700.729 395.121 632.722C305.477 564.715 235.793 488.051 195.59 419.09C175.489 384.609 162.766 352.069 158.595 323.511C154.424 294.956 158.806 270.41 172.872 251.869C186.938 233.327 209.396 222.495 238.02 218.818C266.645 215.141 301.409 218.626 340.031 228.695C417.273 248.832 509.877 295.286 599.52 363.292Z" stroke="url(#paint54_linear)" stroke-opacity="0.7" stroke-width="0.7"/>
<path d="M601.856 365.097C690.298 434.658 758.634 512.527 797.627 582.179C817.124 617.006 829.276 649.762 832.948 678.388C836.62 707.013 831.811 731.478 817.423 749.771C803.036 768.064 780.392 778.503 751.709 781.68C723.024 784.856 688.326 780.765 649.885 770.024C573.006 748.541 481.228 700.479 392.785 630.918C304.342 561.357 236.007 483.488 197.014 413.836C177.517 379.01 165.364 346.253 161.692 317.627C158.02 289.002 162.83 264.537 177.217 246.244C191.605 227.951 214.248 217.512 242.932 214.335C271.617 211.159 306.315 215.25 344.755 225.991C421.634 247.474 513.413 295.536 601.856 365.097Z" stroke="url(#paint55_linear)" stroke-opacity="0.7" stroke-width="0.7"/>
<path d="M604.16 366.941C691.375 438.035 758.342 517.085 796.113 587.407C814.999 622.568 826.578 655.532 829.75 684.218C832.922 712.902 827.686 737.28 812.981 755.319C798.277 773.358 775.455 783.4 746.72 786.076C717.984 788.751 683.363 784.055 645.116 772.645C568.623 749.824 477.697 700.167 390.482 629.073C303.267 557.979 236.301 478.93 198.529 408.608C179.643 373.446 168.064 340.482 164.892 311.796C161.721 283.112 166.956 258.735 181.661 240.695C196.366 222.656 219.188 212.614 247.922 209.939C276.659 207.263 311.28 211.959 349.527 223.37C426.019 246.191 516.945 295.847 604.16 366.941Z" stroke="url(#paint56_linear)" stroke-opacity="0.7" stroke-width="0.7"/>
<path d="M606.431 368.825C692.392 441.43 757.968 521.637 794.507 592.607C812.777 628.093 823.778 661.254 826.449 689.991C829.12 718.726 823.459 743.009 808.442 760.788C793.425 778.568 770.431 788.21 741.654 790.384C712.876 792.558 678.342 787.258 640.3 775.182C564.217 751.029 474.172 699.793 388.211 627.188C302.249 554.583 236.673 474.377 200.135 403.406C181.865 367.92 170.863 334.759 168.192 306.023C165.522 277.287 171.182 253.005 186.199 235.225C201.217 217.445 224.21 207.803 252.987 205.629C281.766 203.456 316.3 208.755 354.342 220.832C430.424 244.984 520.47 296.22 606.431 368.825Z" stroke="url(#paint57_linear)" stroke-opacity="0.7" stroke-width="0.7"/>
<path d="M608.669 370.75C693.35 444.844 757.516 526.183 792.811 597.78C810.458 633.58 820.879 666.927 823.048 695.706C825.217 724.484 819.134 748.664 803.809 766.179C788.483 783.694 765.325 792.934 736.514 794.605C707.702 796.276 673.266 790.374 635.44 777.635C559.791 752.159 470.654 699.359 385.973 625.265C301.292 551.171 237.125 469.832 201.831 398.235C184.183 362.435 173.762 329.088 171.593 300.309C169.424 271.531 175.508 247.351 190.833 229.836C206.158 212.321 229.317 203.081 258.127 201.41C286.939 199.739 321.376 205.641 359.201 218.379C434.85 243.856 523.988 296.656 608.669 370.75Z" stroke="url(#paint58_linear)" stroke-opacity="0.7" stroke-width="0.7"/>
<path d="M610.873 372.712C694.248 448.273 756.985 530.719 791.024 602.922C808.045 639.024 817.882 672.548 819.548 701.361C821.215 730.172 814.71 754.242 799.082 771.487C783.453 788.732 760.137 797.566 731.302 798.734C702.465 799.902 668.137 793.4 630.539 780.003C555.346 753.21 467.144 698.863 383.769 623.302C300.394 547.741 237.657 465.295 203.617 393.093C186.597 356.991 176.759 323.466 175.093 294.654C173.427 265.843 179.931 241.773 195.56 224.528C211.188 207.283 234.505 198.449 263.34 197.281C292.177 196.113 326.505 202.615 364.102 216.011C439.296 242.804 527.498 297.152 610.873 372.712Z" stroke="url(#paint59_linear)" stroke-opacity="0.7" stroke-width="0.7"/>
<path d="M613.042 374.713C695.085 451.718 756.374 535.246 789.148 608.032C805.536 644.425 814.787 678.116 815.95 706.953C817.113 735.789 810.19 759.742 794.262 776.712C778.335 793.681 754.868 802.107 726.017 802.771C697.164 803.436 662.955 796.336 625.597 782.285C550.883 754.184 463.642 698.306 381.599 621.301C299.555 544.297 238.267 460.768 205.492 387.983C189.105 351.589 179.854 317.898 178.691 289.061C177.528 260.226 184.451 236.272 200.378 219.303C216.305 202.333 239.772 193.908 268.624 193.243C297.477 192.579 331.686 199.678 369.044 213.729C443.758 241.83 530.998 297.709 613.042 374.713Z" stroke="url(#paint60_linear)" stroke-opacity="0.7" stroke-width="0.7"/>
<path d="M615.176 376.752C695.863 455.177 755.685 539.762 787.184 613.108C802.934 649.782 811.595 683.63 812.255 712.483C812.915 741.334 805.574 765.163 789.353 781.852C773.132 798.541 749.522 806.556 720.664 806.717C691.804 806.877 657.723 799.182 620.616 784.481C546.404 755.08 460.152 697.688 379.465 619.263C298.778 540.839 238.956 456.253 207.457 382.907C191.708 346.233 183.046 312.385 182.386 283.532C181.726 254.681 189.067 230.852 205.288 214.163C221.509 197.474 245.119 189.46 273.978 189.299C302.838 189.138 336.918 196.834 374.025 211.534C448.237 240.935 534.489 298.327 615.176 376.752Z" stroke="url(#paint61_linear)" stroke-opacity="0.7" stroke-width="0.7"/>
<path d="M617.275 378.827C696.581 458.648 754.917 544.264 785.131 618.149C800.239 655.092 808.308 689.086 808.464 717.946C808.621 746.805 800.865 770.502 784.356 786.905C767.846 803.308 744.099 810.91 715.242 810.567C686.384 810.224 652.443 801.935 615.598 786.589C541.91 755.897 456.673 697.008 377.367 617.187C298.061 537.366 239.725 451.75 209.511 377.865C194.403 340.922 186.334 306.928 186.178 278.068C186.022 249.21 193.777 225.513 210.286 209.109C226.796 192.706 250.543 185.104 279.4 185.447C308.258 185.79 342.199 194.08 379.044 209.426C452.732 240.117 537.969 299.006 617.275 378.827Z" stroke="url(#paint62_linear)" stroke-opacity="0.7" stroke-width="0.7"/>
<path d="M619.336 380.939C697.237 462.132 754.071 548.753 782.991 623.154C797.451 660.355 804.926 694.485 804.578 723.343C804.231 752.2 796.063 775.758 779.27 791.871C762.476 807.983 738.601 815.169 709.754 814.323C680.906 813.476 647.115 804.596 610.544 788.609C537.403 756.636 453.206 696.269 375.305 615.076C297.404 533.883 240.571 447.262 211.651 372.861C197.191 335.659 189.716 301.53 190.063 272.672C190.411 243.815 198.578 220.257 215.372 204.144C232.166 188.032 256.041 180.846 284.888 181.692C313.736 182.538 347.527 191.419 384.098 207.406C457.239 239.378 541.435 299.746 619.336 380.939Z" stroke="url(#paint63_linear)" stroke-opacity="0.7" stroke-width="0.7"/>
<path d="M621.361 383.086C697.833 465.626 753.146 553.226 780.763 628.121C794.572 665.569 801.45 699.823 800.599 728.671C799.748 757.518 791.17 780.929 774.098 796.747C757.026 812.564 733.028 819.332 704.201 817.982C675.372 816.632 641.741 807.164 605.455 790.541C532.883 757.297 449.753 695.469 373.281 612.929C296.808 530.389 241.496 442.789 213.879 367.894C200.07 330.446 193.191 296.192 194.043 267.344C194.894 238.497 203.471 215.086 220.543 199.268C237.615 183.451 261.613 176.683 290.44 178.033C319.269 179.383 352.9 188.851 389.187 205.474C461.759 238.718 544.889 300.546 621.361 383.086Z" stroke="url(#paint64_linear)" stroke-opacity="0.7" stroke-width="0.7"/>
<path d="M623.347 385.268C698.367 469.13 752.143 557.682 778.448 633.047C791.601 670.731 797.881 705.1 796.526 733.929C795.172 762.756 786.187 786.015 768.842 801.531C751.496 817.048 727.384 823.397 698.585 821.544C669.784 819.691 636.323 809.637 600.332 792.384C528.352 757.878 446.313 694.608 371.293 610.746C296.273 526.884 242.498 438.332 216.192 362.967C203.039 325.284 196.759 290.915 198.114 262.086C199.468 233.259 208.453 210 225.799 194.483C243.144 178.967 267.256 172.618 296.056 174.471C324.857 176.323 358.317 186.378 394.308 203.631C466.289 238.137 548.327 301.406 623.347 385.268Z" stroke="url(#paint65_linear)" stroke-opacity="0.7" stroke-width="0.7"/>
<path d="M625.295 387.485C698.84 472.644 751.062 562.121 776.049 637.933C788.542 675.84 794.221 710.314 792.364 739.115C790.506 767.914 781.117 791.012 763.503 806.224C745.889 821.435 721.67 827.362 692.908 825.007C664.143 822.652 630.864 812.015 595.179 794.137C523.812 758.38 442.89 693.688 369.345 608.53C295.8 523.371 243.578 433.894 218.592 358.081C206.098 320.174 200.42 285.701 202.277 256.9C204.134 228.101 213.524 205.003 231.137 189.791C248.751 174.579 272.97 168.652 301.733 171.007C330.497 173.362 363.777 183.999 399.461 201.878C470.829 237.635 551.751 302.326 625.295 387.485Z" stroke="url(#paint66_linear)" stroke-opacity="0.7" stroke-width="0.7"/>
<path d="M627.206 389.735C699.253 476.164 749.905 566.539 773.565 642.776C785.395 680.896 790.471 715.463 788.111 744.227C785.752 772.989 775.961 795.92 758.084 810.822C740.208 825.724 715.889 831.227 687.172 828.371C658.453 825.514 625.364 814.298 589.997 795.799C519.264 758.802 439.484 692.708 367.436 606.279C295.389 519.85 244.736 429.475 221.077 353.238C209.247 315.119 204.171 280.551 206.531 251.787C208.89 223.025 218.681 200.094 236.558 185.192C254.434 170.29 278.753 164.787 307.47 167.644C336.189 170.5 369.278 181.716 404.645 200.215C475.378 237.212 555.158 303.306 627.206 389.735Z" stroke="url(#paint67_linear)" stroke-opacity="0.7" stroke-width="0.7"/>
<path d="M629.075 392.019C699.603 479.692 748.67 570.937 770.996 647.576C782.159 685.896 786.631 720.546 783.769 749.265C780.908 777.982 770.718 800.738 752.584 815.326C734.451 829.913 710.039 834.991 681.376 831.634C652.712 828.276 619.824 816.485 584.785 797.371C514.709 759.146 436.094 691.67 365.566 603.996C295.038 516.323 245.97 425.078 223.645 348.439C212.482 310.119 208.01 275.468 210.871 246.75C213.733 218.033 223.922 195.277 242.056 180.689C260.19 166.101 284.601 161.024 313.264 164.381C341.929 167.738 374.817 179.53 409.856 198.643C479.932 236.869 558.547 304.345 629.075 392.019Z" stroke="url(#paint68_linear)" stroke-opacity="0.7" stroke-width="0.7"/>
<path d="M630.905 394.334C699.892 483.225 747.359 575.312 768.344 652.329C778.836 690.838 782.703 725.562 779.341 754.226C775.979 782.888 765.393 805.463 747.008 819.732C728.622 834.001 704.126 838.652 675.526 834.795C646.924 830.938 614.247 818.574 579.547 798.852C510.149 759.409 432.724 690.571 363.736 601.68C294.749 512.789 247.282 420.702 226.297 343.686C215.805 305.177 211.938 270.453 215.3 241.789C218.662 213.126 229.247 190.551 247.633 176.282C266.019 162.013 290.515 157.362 319.115 161.219C347.717 165.076 380.394 177.44 415.094 197.162C484.492 236.605 561.917 305.443 630.905 394.334Z" stroke="url(#paint69_linear)" stroke-opacity="0.7" stroke-width="0.7"/>
<path d="M632.694 396.681C700.119 486.762 745.972 579.664 765.61 657.035C775.428 695.722 778.689 730.507 774.827 759.108C770.965 787.708 759.987 810.095 741.355 824.041C722.723 837.987 698.15 842.209 669.621 837.854C641.091 833.498 608.635 820.566 574.284 800.241C505.585 759.593 429.373 689.414 361.948 599.333C294.522 509.252 248.669 416.35 229.032 338.979C219.213 300.293 215.953 265.507 219.815 236.906C223.677 208.306 234.654 185.919 253.286 171.973C271.918 158.027 296.492 153.805 325.02 158.16C353.55 162.516 386.007 175.448 420.357 195.773C489.057 236.421 565.268 306.6 632.694 396.681Z" stroke="url(#paint70_linear)" stroke-opacity="0.7" stroke-width="0.7"/>
<path d="M634.441 399.059C700.284 490.303 744.509 583.991 762.793 661.693C771.935 700.545 774.587 735.382 770.227 763.911C765.867 792.439 754.5 814.631 735.627 828.25C716.755 841.868 692.111 845.662 663.663 840.809C635.214 835.956 602.988 822.459 568.997 801.538C501.018 759.697 426.042 688.199 360.199 596.955C294.356 505.71 250.132 412.022 231.848 334.32C222.706 295.469 220.053 260.631 224.414 232.102C228.774 203.574 240.141 181.382 259.013 167.764C277.886 154.145 302.529 150.352 330.977 155.205C359.427 160.058 391.653 173.555 425.643 194.475C493.623 236.316 568.598 307.814 634.441 399.059Z" stroke="url(#paint71_linear)" stroke-opacity="0.7" stroke-width="0.7"/>
<path d="M636.147 401.467C700.388 493.847 742.971 588.293 759.896 666.302C768.359 705.307 770.403 740.186 765.545 768.634C760.687 797.082 748.935 819.072 729.828 832.359C710.72 845.646 686.015 849.009 657.656 843.66C629.295 838.311 597.309 824.254 563.689 802.743C496.45 759.722 422.734 686.927 358.494 594.547C294.253 502.167 251.67 407.722 234.745 329.713C226.282 290.707 224.238 255.829 229.096 227.38C233.954 198.933 245.706 176.943 264.813 163.656C283.92 150.368 308.626 147.006 336.985 152.354C365.346 157.703 397.331 171.76 430.952 193.271C498.191 236.292 571.907 309.088 636.147 401.467Z" stroke="url(#paint72_linear)" stroke-opacity="0.7" stroke-width="0.7"/>
<path d="M637.811 403.904C700.43 497.391 741.358 592.565 756.919 670.858C764.699 710.005 766.134 744.914 760.781 773.274C755.428 801.632 743.293 823.414 723.957 836.365C704.621 849.317 679.86 852.248 651.599 846.405C623.336 840.562 591.6 825.949 558.361 803.854C491.883 759.667 419.448 685.596 356.83 592.109C294.211 498.622 253.283 403.448 237.722 325.155C229.941 286.008 228.506 251.099 233.86 222.74C239.213 194.381 251.347 172.6 270.684 159.648C290.02 146.696 314.781 143.765 343.042 149.608C371.305 155.451 403.04 170.064 436.28 192.159C502.758 236.347 575.192 310.418 637.811 403.904Z" stroke="url(#paint73_linear)" stroke-opacity="0.7" stroke-width="0.7"/>
<path d="M639.432 406.371C700.41 500.936 739.671 596.81 753.863 675.362C760.959 714.639 761.785 749.568 755.937 777.83C750.09 806.09 737.577 827.657 718.018 840.269C698.459 852.881 673.65 855.38 645.495 849.045C617.339 842.709 585.863 827.545 553.014 804.873C487.318 759.532 416.187 684.208 355.209 589.643C294.232 495.077 254.971 399.203 240.779 320.651C233.683 281.374 232.857 246.446 238.705 218.184C244.552 189.923 257.065 168.357 276.624 155.744C296.183 143.132 320.991 140.634 349.147 146.969C377.303 153.304 408.779 168.469 441.628 191.14C507.324 236.481 578.455 311.805 639.432 406.371Z" stroke="url(#paint74_linear)" stroke-opacity="0.7" stroke-width="0.7"/>
<path d="M641.01 408.865C700.328 504.48 737.909 601.025 750.729 679.813C757.138 719.208 757.354 754.145 751.014 782.301C744.675 810.455 731.787 831.8 712.011 844.069C692.234 856.338 667.386 858.403 639.346 851.578C611.304 844.752 580.098 829.04 547.65 805.799C482.755 759.318 412.949 682.764 353.632 587.149C294.314 491.534 256.732 394.989 243.913 316.201C237.503 276.806 237.288 241.869 243.628 213.713C249.967 185.559 262.854 164.214 282.631 151.945C302.407 139.676 327.255 137.611 355.295 144.437C383.337 151.262 414.543 166.974 446.992 190.215C511.887 236.696 581.692 313.25 641.01 408.865Z" stroke="url(#paint75_linear)" stroke-opacity="0.7" stroke-width="0.7"/>
<path d="M642.544 411.387C700.184 508.022 736.075 605.208 747.517 684.208C753.238 723.709 752.844 758.645 746.014 786.686C739.184 814.725 725.926 835.841 705.939 847.763C685.951 859.685 661.071 861.316 633.154 854.003C605.236 846.689 574.308 830.434 542.271 806.631C478.197 759.024 409.738 681.264 352.098 584.628C294.458 487.992 258.567 390.806 247.125 311.806C241.404 272.306 241.797 237.37 248.628 209.329C255.458 181.29 268.715 160.173 288.703 148.251C308.691 136.329 333.571 134.698 361.488 142.012C389.406 149.326 420.333 165.58 452.371 189.384C516.445 236.99 584.904 314.751 642.544 411.387Z" stroke="url(#paint76_linear)" stroke-opacity="0.7" stroke-width="0.7"/>
<path d="M644.034 413.935C699.978 511.562 734.168 609.36 744.229 688.547C749.26 728.141 748.257 763.065 740.938 790.982C733.62 818.898 719.995 839.78 699.803 851.352C679.61 862.923 654.705 864.12 626.92 856.32C599.134 848.519 568.495 831.728 536.878 807.369C473.644 758.651 406.553 679.708 350.608 582.081C294.664 484.454 260.474 386.656 250.413 307.469C245.382 267.874 246.385 232.951 253.704 205.033C261.022 177.118 274.646 156.235 294.839 144.664C315.032 133.093 339.937 131.896 367.721 139.696C395.508 147.496 426.147 164.288 457.764 188.647C520.998 237.365 588.089 316.308 644.034 413.935Z" stroke="url(#paint77_linear)" stroke-opacity="0.7" stroke-width="0.7"/>
<path d="M645.478 416.508C699.711 515.096 732.188 613.476 740.866 692.827C745.205 732.503 743.592 767.404 735.787 795.189C727.983 822.973 713.997 843.614 693.605 854.831C673.213 866.048 648.291 866.81 620.647 858.527C593.001 850.242 562.66 832.919 531.472 808.012C469.099 758.198 403.395 678.096 349.163 579.507C294.931 480.919 262.453 382.539 253.775 303.188C249.436 263.512 251.049 228.611 258.854 200.826C266.658 173.042 280.645 152.401 301.036 141.184C321.428 129.967 346.35 129.205 373.994 137.488C401.64 145.772 431.981 163.096 463.169 188.003C525.543 237.817 591.246 317.919 645.478 416.508Z" stroke="url(#paint78_linear)" stroke-opacity="0.7" stroke-width="0.7"/>
<path d="M646.878 419.106C699.381 518.626 730.137 617.557 737.428 697.047C741.075 736.793 738.853 771.661 730.564 799.306C722.276 826.949 707.931 847.343 687.347 858.203C666.763 869.062 641.832 869.389 614.336 860.624C586.838 851.859 556.804 834.008 526.056 808.56C464.562 757.666 400.266 676.429 347.763 576.909C295.259 477.389 264.504 378.458 257.212 298.968C253.566 259.222 255.788 224.354 264.076 196.709C272.364 169.066 286.709 148.672 307.293 137.813C327.877 126.953 352.809 126.626 380.305 135.391C407.802 144.156 437.836 162.007 468.584 187.455C530.079 238.349 594.374 319.586 646.878 419.106Z" stroke="url(#paint79_linear)" stroke-opacity="0.7" stroke-width="0.7"/>
<path d="M648.233 421.728C698.991 522.149 728.015 621.602 733.919 701.207C736.871 741.011 734.041 775.835 725.271 803.33C716.502 830.825 701.803 850.965 681.033 861.464C660.262 871.963 635.329 871.854 607.99 862.611C580.65 853.367 550.932 834.995 520.633 809.015C460.036 757.054 397.168 674.708 346.409 574.287C295.651 473.866 266.627 374.413 260.723 294.807C257.771 255.004 260.601 220.18 269.371 192.684C278.14 165.19 292.839 145.05 313.609 134.551C334.38 124.052 359.313 124.161 386.652 133.404C413.992 142.648 443.71 161.02 474.009 187C534.606 238.96 597.474 321.307 648.233 421.728Z" stroke="url(#paint80_linear)" stroke-opacity="0.7" stroke-width="0.7"/>
<path d="M649.541 424.373C698.54 525.665 725.824 625.609 730.337 705.305C732.594 745.155 729.157 779.923 719.908 807.262C710.66 834.599 695.613 854.48 674.662 864.615C653.711 874.749 628.784 874.206 601.611 864.487C574.436 854.767 545.043 835.879 515.202 809.374C455.521 756.364 394.1 672.933 345.102 571.641C296.103 470.349 268.819 370.405 264.306 290.709C262.049 250.86 265.486 216.091 274.735 188.752C283.983 161.415 299.03 141.534 319.981 131.4C340.931 121.265 365.859 121.809 393.032 131.528C420.207 141.247 449.6 160.135 479.441 186.641C539.122 239.65 600.543 323.081 649.541 424.373Z" stroke="url(#paint81_linear)" stroke-opacity="0.7" stroke-width="0.7"/>
<path d="M650.803 427.041C698.026 529.173 723.562 629.578 726.683 709.341C728.244 749.223 724.201 783.927 714.477 811.1C704.753 838.271 689.361 857.887 668.237 867.654C647.112 877.422 622.198 876.443 595.198 866.251C568.197 856.059 539.139 836.661 509.765 809.639C451.018 755.595 391.062 671.105 343.839 568.974C296.616 466.842 271.081 366.437 267.959 286.674C266.398 246.792 270.441 212.088 280.165 184.915C289.889 157.744 305.281 138.128 326.406 128.361C347.53 118.593 372.444 119.572 399.444 129.764C426.445 139.956 455.503 159.354 484.877 186.376C543.624 240.42 603.58 324.91 650.803 427.041Z" stroke="url(#paint82_linear)" stroke-opacity="0.7" stroke-width="0.7"/>
<path d="M652.017 429.73C697.45 532.67 721.23 633.506 722.959 713.311C723.824 753.215 719.175 787.842 708.978 814.842C698.782 841.839 683.05 861.183 661.758 870.58C640.467 879.978 615.573 878.564 588.756 867.903C561.937 857.241 533.221 837.339 504.323 809.808C446.528 754.748 388.057 669.224 342.623 566.284C297.19 463.344 273.41 362.508 271.681 282.703C270.816 242.799 275.465 208.172 285.662 181.173C295.858 154.175 311.59 134.831 332.882 125.434C354.173 116.037 379.067 117.45 405.884 128.111C432.703 138.773 461.419 158.675 490.317 186.206C548.112 241.266 606.584 326.79 652.017 429.73Z" stroke="url(#paint83_linear)" stroke-opacity="0.7" stroke-width="0.7"/>
<path d="M653.186 432.441C696.816 536.158 718.832 637.393 719.168 717.217C719.336 757.129 714.084 791.67 703.418 818.487C692.752 845.303 676.684 864.369 655.232 873.394C633.78 882.418 608.914 880.57 582.287 869.442C555.658 858.314 527.295 837.914 498.881 809.883C442.056 753.822 385.086 667.291 341.456 563.574C297.826 459.856 275.81 358.621 275.474 278.798C275.306 238.885 280.558 204.344 291.225 177.527C301.89 150.711 317.958 131.645 339.41 122.621C360.863 113.597 385.728 115.444 412.355 126.572C438.984 137.7 467.348 158.101 495.761 186.132C552.586 242.192 609.556 328.723 653.186 432.441Z" stroke="url(#paint84_linear)" stroke-opacity="0.7" stroke-width="0.7"/>
<path d="M654.306 435.171C696.119 539.634 716.365 641.238 715.308 721.055C714.779 760.965 708.925 795.409 697.792 822.036C686.66 848.661 670.262 867.444 648.656 876.093C627.049 884.741 602.22 882.46 575.791 870.869C549.36 859.278 521.357 838.385 493.437 809.863C437.599 752.819 382.148 665.307 340.335 560.844C298.521 456.381 278.276 354.777 279.333 274.96C279.861 235.051 285.715 200.606 296.848 173.979C307.98 147.354 324.378 128.571 345.985 119.923C367.591 111.274 392.42 113.555 418.849 125.146C445.28 136.738 473.283 157.63 501.203 186.152C557.041 243.196 612.492 330.708 654.306 435.171Z" stroke="url(#paint85_linear)" stroke-opacity="0.7" stroke-width="0.7"/>
<path d="M655.379 437.92C695.363 543.097 713.832 645.039 711.382 724.825C710.157 764.719 703.703 799.056 692.107 825.485C680.512 851.912 663.789 870.406 642.034 878.676C620.28 886.946 595.495 884.232 569.272 872.181C543.048 860.13 515.413 838.753 487.996 809.747C433.162 751.738 379.246 663.271 339.262 558.094C299.279 452.917 280.809 350.975 283.259 271.189C284.484 231.295 290.938 196.958 302.534 170.529C314.129 144.102 330.852 125.609 352.607 117.338C374.361 109.068 399.146 111.783 425.369 123.833C451.593 135.884 479.228 157.262 506.646 186.267C561.479 244.277 615.395 332.743 655.379 437.92Z" stroke="url(#paint86_linear)" stroke-opacity="0.7" stroke-width="0.7"/>
<path d="M656.403 440.687C694.545 546.546 711.232 648.795 707.391 728.526C705.47 768.393 698.417 802.612 686.361 828.834C674.307 855.055 657.263 873.254 635.368 881.143C613.473 889.032 588.739 885.886 562.73 873.38C536.72 860.873 509.463 839.016 482.556 809.537C428.743 750.579 376.379 661.184 338.237 555.326C300.095 449.467 283.408 347.219 287.249 267.487C289.17 227.621 296.223 193.402 308.279 167.179C320.333 140.959 337.377 122.759 359.272 114.87C381.167 106.981 405.901 110.128 431.91 122.634C457.92 135.141 485.177 156.997 512.084 186.477C565.897 245.434 618.261 334.829 656.403 440.687Z" stroke="url(#paint87_linear)" stroke-opacity="0.7" stroke-width="0.7"/>
<path d="M657.38 443.473C693.668 549.981 708.569 652.505 703.336 732.157C700.72 771.985 693.071 806.075 680.56 832.083C668.049 858.089 650.691 875.988 628.661 883.494C606.632 891 581.956 887.422 556.17 874.464C530.382 861.505 503.511 839.176 477.122 809.232C424.346 749.344 373.551 659.049 337.262 552.541C300.973 446.033 286.073 343.509 291.305 263.856C293.922 224.029 301.571 189.939 314.082 163.931C326.592 137.924 343.951 120.025 365.98 112.52C388.01 105.014 412.685 108.591 438.472 121.55C464.259 134.508 491.131 156.837 517.52 186.782C570.296 246.67 621.091 336.965 657.38 443.473Z" stroke="url(#paint88_linear)" stroke-opacity="0.7" stroke-width="0.7"/>
<path d="M658.307 446.275C692.731 553.4 705.84 656.169 699.218 735.718C695.907 775.493 687.664 809.445 674.701 835.231C661.739 861.015 644.07 878.608 621.913 885.728C599.756 892.848 575.147 888.841 549.59 875.434C524.033 862.027 497.555 839.233 471.693 808.832C419.97 748.032 370.758 656.865 336.334 549.74C301.91 442.615 288.801 339.846 295.423 260.297C298.734 220.522 306.977 186.57 319.94 160.784C332.902 135 350.57 117.407 372.727 110.287C394.885 103.166 419.494 107.174 445.05 120.58C470.608 133.987 497.086 156.782 522.948 187.182C574.671 247.982 623.882 339.15 658.307 446.275Z" stroke="url(#paint89_linear)" stroke-opacity="0.7" stroke-width="0.7"/>
<path d="M659.185 449.092C691.735 556.802 703.048 659.784 695.039 739.205C691.034 778.916 682.2 812.719 668.789 838.275C655.378 863.828 637.406 881.111 615.128 887.843C592.85 894.575 568.314 890.139 542.996 876.289C517.676 862.438 491.6 839.185 466.272 808.337C415.618 746.644 368.005 654.632 335.456 546.922C302.906 439.212 291.593 336.23 299.602 256.809C303.607 217.098 312.441 183.295 325.852 157.739C339.263 132.186 357.235 114.903 379.513 108.171C401.791 101.438 426.327 105.875 451.645 119.725C476.965 133.576 503.041 156.829 528.369 187.677C579.022 249.37 626.636 341.382 659.185 449.092Z" stroke="url(#paint90_linear)" stroke-opacity="0.7" stroke-width="0.7"/>
<path d="M660.014 451.924C690.679 560.186 700.194 663.35 690.799 742.619C686.102 782.254 676.679 815.898 662.824 841.215C648.97 866.531 630.699 883.497 608.306 889.84C585.914 896.182 561.459 891.318 536.387 877.028C511.313 862.738 485.646 839.033 460.861 807.748C411.292 745.18 365.292 652.351 334.627 544.09C303.962 435.828 294.448 332.665 303.842 253.395C308.539 213.76 317.962 180.116 331.817 154.799C345.671 129.483 363.943 112.517 386.335 106.174C408.727 99.8318 433.182 104.696 458.254 118.986C483.328 133.277 508.995 156.981 533.78 188.266C583.349 250.834 629.35 343.663 660.014 451.924Z" stroke="url(#paint91_linear)" stroke-opacity="0.7" stroke-width="0.7"/>
<path d="M660.793 454.77C689.564 563.55 697.277 666.864 686.5 745.957C681.112 785.505 671.104 818.979 656.809 844.051C642.515 869.121 623.95 885.766 601.451 891.716C578.951 897.667 554.585 892.377 529.766 877.652C504.945 862.926 479.696 838.776 455.461 807.064C406.991 743.64 362.618 650.023 333.847 541.243C305.076 432.463 297.364 329.148 308.14 250.055C313.528 210.508 323.537 177.034 337.832 151.962C352.126 126.892 370.69 110.247 393.19 104.296C415.689 98.3456 440.055 103.636 464.875 118.361C489.696 133.087 514.944 157.236 539.18 188.949C587.65 252.372 632.023 345.99 660.793 454.77Z" stroke="url(#paint92_linear)" stroke-opacity="0.7" stroke-width="0.7"/>
<path d="M661.524 457.63C688.392 566.896 694.3 670.329 682.145 749.222C676.067 788.669 665.476 821.963 650.746 846.782C636.016 871.599 617.164 887.917 594.564 893.474C571.964 899.031 547.694 893.317 523.136 878.161C498.576 863.003 473.752 838.417 450.074 806.287C402.718 742.027 359.986 647.649 333.118 538.383C306.25 429.118 300.342 325.685 312.497 246.792C318.575 207.344 329.166 174.05 343.896 149.232C358.625 124.415 377.478 108.097 400.077 102.539C422.677 96.9821 446.947 102.697 471.506 117.853C496.066 133.01 520.89 157.596 544.568 189.727C591.924 253.986 634.656 348.365 661.524 457.63Z" stroke="url(#paint93_linear)" stroke-opacity="0.7" stroke-width="0.7"/>
<path d="M662.203 460.503C687.16 570.221 691.262 673.741 677.732 752.41C670.967 791.745 659.796 824.85 644.635 849.407C629.475 873.964 610.34 889.95 587.647 895.112C564.953 900.274 540.787 894.137 516.497 878.554C492.205 862.971 467.814 837.955 444.7 805.416C398.473 740.34 357.395 645.23 332.438 535.512C307.481 425.795 303.379 322.274 316.909 243.605C323.674 204.27 334.844 171.166 350.006 146.608C365.166 122.052 384.3 106.065 406.994 100.903C429.687 95.7415 453.854 101.879 478.144 117.461C502.436 133.045 526.826 158.06 549.94 190.599C596.167 255.676 637.246 350.785 662.203 460.503Z" stroke="url(#paint94_linear)" stroke-opacity="0.7" stroke-width="0.7"/>
<path d="M662.832 463.387C685.87 573.523 688.165 677.099 673.264 755.52C665.813 794.732 654.067 827.636 638.479 851.925C622.893 876.213 603.483 891.863 580.702 896.628C557.922 901.393 533.867 894.835 509.852 878.831C485.836 862.826 461.885 837.389 439.343 804.451C394.259 738.578 354.846 642.766 331.808 532.629C308.77 422.493 306.475 318.917 321.376 240.496C328.827 201.284 340.573 168.38 356.161 144.091C371.747 119.803 391.157 104.153 413.937 99.3878C436.718 94.6227 460.773 101.181 484.788 117.185C508.804 133.19 532.754 158.627 555.297 191.565C600.381 257.438 639.794 353.25 662.832 463.387Z" stroke="url(#paint95_linear)" stroke-opacity="0.7" stroke-width="0.7"/>
<path d="M663.412 466.28C684.524 576.802 685.011 680.402 668.744 758.551C660.61 797.626 648.291 830.321 632.282 854.334C616.274 878.346 596.594 893.655 573.734 898.022C550.874 902.389 526.936 895.412 503.205 878.991C479.471 862.569 455.969 836.718 434.004 803.392C390.077 736.742 352.342 640.257 331.23 529.735C310.117 419.213 309.63 315.612 325.898 237.463C334.032 198.388 346.351 165.694 362.36 141.68C378.368 117.668 398.048 102.359 420.908 97.9924C443.768 93.6256 467.705 100.602 491.437 117.023C515.17 133.445 538.673 159.297 560.637 192.622C604.565 259.272 642.299 355.758 663.412 466.28Z" stroke="url(#paint96_linear)" stroke-opacity="0.7" stroke-width="0.7"/>
<path d="M663.94 469.183C683.12 580.056 681.799 683.65 664.17 761.503C655.356 800.43 642.468 832.904 626.042 856.635C609.618 880.364 589.673 895.327 566.741 899.294C543.808 903.261 519.996 895.868 496.554 879.035C473.111 862.202 450.063 835.944 428.684 802.24C385.926 734.834 349.881 637.705 330.701 526.831C311.521 415.957 312.842 312.364 330.471 234.511C339.285 195.584 352.173 163.109 368.599 139.379C385.023 115.65 404.968 100.687 427.9 96.7195C450.833 92.7523 474.645 100.146 498.087 116.978C521.53 133.812 544.578 160.07 565.957 193.774C608.715 261.18 644.759 358.309 663.94 469.183Z" stroke="url(#paint97_linear)" stroke-opacity="0.7" stroke-width="0.7"/>
<path d="M664.418 472.095C681.66 583.286 678.531 686.841 659.547 764.374C650.054 803.142 636.602 835.387 619.764 858.827C602.928 882.265 582.725 896.878 559.727 900.445C536.729 904.011 513.049 896.203 489.905 878.964C466.759 861.724 444.173 835.068 423.385 800.996C381.81 732.853 347.466 635.11 330.224 523.919C312.981 412.727 316.11 309.173 335.095 231.639C344.588 192.872 358.04 160.627 374.877 137.187C391.714 113.748 411.917 99.1353 434.915 95.569C457.913 92.0026 481.593 99.8106 504.737 117.05C527.882 134.29 550.469 160.946 571.256 195.018C612.831 263.16 647.175 360.904 664.418 472.095Z" stroke="url(#paint98_linear)" stroke-opacity="0.7" stroke-width="0.7"/>
<path d="M664.844 475.015C680.143 586.491 675.208 689.974 654.873 767.165C644.705 805.761 630.692 837.766 613.448 860.909C596.205 884.05 575.75 898.308 552.693 901.472C529.636 904.637 506.097 896.417 483.257 878.776C460.416 861.135 438.298 834.089 418.108 799.659C377.729 730.801 345.096 632.474 329.796 520.998C314.497 409.523 319.433 306.039 339.768 228.848C349.936 190.252 363.949 158.248 381.193 135.105C398.436 111.963 418.89 97.7054 441.947 94.541C465.004 91.3766 488.544 99.5967 511.384 117.237C534.225 134.878 556.342 161.924 576.533 196.354C616.912 265.212 649.545 363.54 664.844 475.015Z" stroke="url(#paint99_linear)" stroke-opacity="0.7" stroke-width="0.7"/>
<defs>
<linearGradient id="paint0_linear" x1="526.728" y1="592.405" x2="468.424" y2="399.47" gradientUnits="userSpaceOnUse">
<stop stop-color="#801CFF" stop-opacity="0.4"/>
<stop offset="1" stop-color="#7D218C" stop-opacity="0.4"/>
</linearGradient>
<linearGradient id="paint1_linear" x1="525.077" y1="592.904" x2="470.149" y2="398.98" gradientUnits="userSpaceOnUse">
<stop stop-color="#801CFF" stop-opacity="0.4"/>
<stop offset="1" stop-color="#7D218C" stop-opacity="0.4"/>
</linearGradient>
<linearGradient id="paint2_linear" x1="523.416" y1="593.374" x2="471.881" y2="398.521" gradientUnits="userSpaceOnUse">
<stop stop-color="#801CFF" stop-opacity="0.4"/>
<stop offset="1" stop-color="#7D218C" stop-opacity="0.4"/>
</linearGradient>
<linearGradient id="paint3_linear" x1="521.748" y1="593.815" x2="473.621" y2="398.092" gradientUnits="userSpaceOnUse">
<stop stop-color="#801CFF" stop-opacity="0.4"/>
<stop offset="1" stop-color="#7D218C" stop-opacity="0.4"/>
</linearGradient>
<linearGradient id="paint4_linear" x1="520.072" y1="594.227" x2="475.368" y2="397.694" gradientUnits="userSpaceOnUse">
<stop stop-color="#801CFF" stop-opacity="0.4"/>
<stop offset="1" stop-color="#7D218C" stop-opacity="0.4"/>
</linearGradient>
<linearGradient id="paint5_linear" x1="518.39" y1="594.609" x2="477.123" y2="397.326" gradientUnits="userSpaceOnUse">
<stop stop-color="#801CFF" stop-opacity="0.4"/>
<stop offset="1" stop-color="#7D218C" stop-opacity="0.4"/>
</linearGradient>
<linearGradient id="paint6_linear" x1="516.7" y1="594.962" x2="478.882" y2="396.989" gradientUnits="userSpaceOnUse">
<stop stop-color="#801CFF" stop-opacity="0.4"/>
<stop offset="1" stop-color="#7D218C" stop-opacity="0.4"/>
</linearGradient>
<linearGradient id="paint7_linear" x1="515.006" y1="595.285" x2="480.649" y2="396.682" gradientUnits="userSpaceOnUse">
<stop stop-color="#801CFF" stop-opacity="0.4"/>
<stop offset="1" stop-color="#7D218C" stop-opacity="0.4"/>
</linearGradient>
<linearGradient id="paint8_linear" x1="513.305" y1="595.579" x2="482.42" y2="396.406" gradientUnits="userSpaceOnUse">
<stop stop-color="#801CFF" stop-opacity="0.4"/>
<stop offset="1" stop-color="#7D218C" stop-opacity="0.4"/>
</linearGradient>
<linearGradient id="paint9_linear" x1="511.6" y1="595.843" x2="484.195" y2="396.162" gradientUnits="userSpaceOnUse">
<stop stop-color="#801CFF" stop-opacity="0.4"/>
<stop offset="1" stop-color="#7D218C" stop-opacity="0.4"/>
</linearGradient>
<linearGradient id="paint10_linear" x1="509.89" y1="596.078" x2="485.975" y2="395.949" gradientUnits="userSpaceOnUse">
<stop stop-color="#801CFF" stop-opacity="0.4"/>
<stop offset="1" stop-color="#7D218C" stop-opacity="0.4"/>
</linearGradient>
<linearGradient id="paint11_linear" x1="508.177" y1="596.282" x2="487.757" y2="395.766" gradientUnits="userSpaceOnUse">
<stop stop-color="#801CFF" stop-opacity="0.4"/>
<stop offset="1" stop-color="#7D218C" stop-opacity="0.4"/>
</linearGradient>
<linearGradient id="paint12_linear" x1="506.46" y1="596.456" x2="489.543" y2="395.615" gradientUnits="userSpaceOnUse">
<stop stop-color="#801CFF" stop-opacity="0.4"/>
<stop offset="1" stop-color="#7D218C" stop-opacity="0.4"/>
</linearGradient>
<linearGradient id="paint13_linear" x1="504.739" y1="596.6" x2="491.33" y2="395.494" gradientUnits="userSpaceOnUse">
<stop stop-color="#801CFF" stop-opacity="0.4"/>
<stop offset="1" stop-color="#7D218C" stop-opacity="0.4"/>
</linearGradient>
<linearGradient id="paint14_linear" x1="503.018" y1="596.715" x2="493.121" y2="395.405" gradientUnits="userSpaceOnUse">
<stop stop-color="#801CFF" stop-opacity="0.4"/>
<stop offset="1" stop-color="#7D218C" stop-opacity="0.4"/>
</linearGradient>
<linearGradient id="paint15_linear" x1="501.295" y1="596.8" x2="494.912" y2="395.348" gradientUnits="userSpaceOnUse">
<stop stop-color="#801CFF" stop-opacity="0.4"/>
<stop offset="1" stop-color="#7D218C" stop-opacity="0.4"/>
</linearGradient>
<linearGradient id="paint16_linear" x1="499.57" y1="596.854" x2="496.705" y2="395.322" gradientUnits="userSpaceOnUse">
<stop stop-color="#801CFF" stop-opacity="0.4"/>
<stop offset="1" stop-color="#7D218C" stop-opacity="0.4"/>
</linearGradient>
<linearGradient id="paint17_linear" x1="497.845" y1="596.878" x2="498.497" y2="395.327" gradientUnits="userSpaceOnUse">
<stop stop-color="#801CFF" stop-opacity="0.4"/>
<stop offset="1" stop-color="#7D218C" stop-opacity="0.4"/>
</linearGradient>
<linearGradient id="paint18_linear" x1="496.119" y1="596.872" x2="500.288" y2="395.362" gradientUnits="userSpaceOnUse">
<stop stop-color="#801CFF" stop-opacity="0.4"/>
<stop offset="1" stop-color="#7D218C" stop-opacity="0.4"/>
</linearGradient>
<linearGradient id="paint19_linear" x1="494.394" y1="596.836" x2="502.079" y2="395.43" gradientUnits="userSpaceOnUse">
<stop stop-color="#801CFF" stop-opacity="0.4"/>
<stop offset="1" stop-color="#7D218C" stop-opacity="0.4"/>
</linearGradient>
<linearGradient id="paint20_linear" x1="492.669" y1="596.77" x2="503.869" y2="395.529" gradientUnits="userSpaceOnUse">
<stop stop-color="#801CFF" stop-opacity="0.4"/>
<stop offset="1" stop-color="#7D218C" stop-opacity="0.4"/>
</linearGradient>
<linearGradient id="paint21_linear" x1="490.947" y1="596.674" x2="505.656" y2="395.658" gradientUnits="userSpaceOnUse">
<stop stop-color="#801CFF" stop-opacity="0.4"/>
<stop offset="1" stop-color="#7D218C" stop-opacity="0.4"/>
</linearGradient>
<linearGradient id="paint22_linear" x1="489.225" y1="596.547" x2="507.441" y2="395.819" gradientUnits="userSpaceOnUse">
<stop stop-color="#801CFF" stop-opacity="0.4"/>
<stop offset="1" stop-color="#7D218C" stop-opacity="0.4"/>
</linearGradient>
<linearGradient id="paint23_linear" x1="487.506" y1="596.391" x2="509.223" y2="396.012" gradientUnits="userSpaceOnUse">
<stop stop-color="#801CFF" stop-opacity="0.4"/>
<stop offset="1" stop-color="#7D218C" stop-opacity="0.4"/>
</linearGradient>
<linearGradient id="paint24_linear" x1="485.792" y1="596.205" x2="511.002" y2="396.235" gradientUnits="userSpaceOnUse">
<stop stop-color="#801CFF" stop-opacity="0.4"/>
<stop offset="1" stop-color="#7D218C" stop-opacity="0.4"/>
</linearGradient>
<linearGradient id="paint25_linear" x1="484.078" y1="595.989" x2="512.775" y2="396.49" gradientUnits="userSpaceOnUse">
<stop stop-color="#801CFF" stop-opacity="0.4"/>
<stop offset="1" stop-color="#7D218C" stop-opacity="0.4"/>
</linearGradient>
<linearGradient id="paint26_linear" x1="482.371" y1="595.743" x2="514.545" y2="396.775" gradientUnits="userSpaceOnUse">
<stop stop-color="#801CFF" stop-opacity="0.4"/>
<stop offset="1" stop-color="#7D218C" stop-opacity="0.4"/>
</linearGradient>
<linearGradient id="paint27_linear" x1="480.668" y1="595.467" x2="516.309" y2="397.09" gradientUnits="userSpaceOnUse">
<stop stop-color="#801CFF" stop-opacity="0.4"/>
<stop offset="1" stop-color="#7D218C" stop-opacity="0.4"/>
</linearGradient>
<linearGradient id="paint28_linear" x1="478.969" y1="595.162" x2="518.067" y2="397.437" gradientUnits="userSpaceOnUse">
<stop stop-color="#801CFF" stop-opacity="0.4"/>
<stop offset="1" stop-color="#7D218C" stop-opacity="0.4"/>
</linearGradient>
<linearGradient id="paint29_linear" x1="477.277" y1="594.827" x2="519.819" y2="397.815" gradientUnits="userSpaceOnUse">
<stop stop-color="#801CFF" stop-opacity="0.4"/>
<stop offset="1" stop-color="#7D218C" stop-opacity="0.4"/>
</linearGradient>
<linearGradient id="paint30_linear" x1="475.59" y1="594.462" x2="521.565" y2="398.223" gradientUnits="userSpaceOnUse">
<stop stop-color="#801CFF" stop-opacity="0.4"/>
<stop offset="1" stop-color="#7D218C" stop-opacity="0.4"/>
</linearGradient>
<linearGradient id="paint31_linear" x1="473.911" y1="594.068" x2="523.303" y2="398.661" gradientUnits="userSpaceOnUse">
<stop stop-color="#801CFF" stop-opacity="0.4"/>
<stop offset="1" stop-color="#7D218C" stop-opacity="0.4"/>
</linearGradient>
<linearGradient id="paint32_linear" x1="472.237" y1="593.645" x2="525.032" y2="399.13" gradientUnits="userSpaceOnUse">
<stop stop-color="#801CFF" stop-opacity="0.4"/>
<stop offset="1" stop-color="#7D218C" stop-opacity="0.4"/>
</linearGradient>
<linearGradient id="paint33_linear" x1="470.572" y1="593.193" x2="526.753" y2="399.628" gradientUnits="userSpaceOnUse">
<stop stop-color="#801CFF" stop-opacity="0.4"/>
<stop offset="1" stop-color="#7D218C" stop-opacity="0.4"/>
</linearGradient>
<linearGradient id="paint34_linear" x1="468.914" y1="592.711" x2="528.466" y2="400.156" gradientUnits="userSpaceOnUse">
<stop stop-color="#801CFF" stop-opacity="0.4"/>
<stop offset="1" stop-color="#7D218C" stop-opacity="0.4"/>
</linearGradient>
<linearGradient id="paint35_linear" x1="467.265" y1="592.201" x2="530.168" y2="400.715" gradientUnits="userSpaceOnUse">
<stop stop-color="#801CFF" stop-opacity="0.4"/>
<stop offset="1" stop-color="#7D218C" stop-opacity="0.4"/>
</linearGradient>
<linearGradient id="paint36_linear" x1="465.626" y1="591.662" x2="531.862" y2="401.304" gradientUnits="userSpaceOnUse">
<stop stop-color="#801CFF" stop-opacity="0.4"/>
<stop offset="1" stop-color="#7D218C" stop-opacity="0.4"/>
</linearGradient>
<linearGradient id="paint37_linear" x1="463.997" y1="591.095" x2="533.545" y2="401.921" gradientUnits="userSpaceOnUse">
<stop stop-color="#801CFF" stop-opacity="0.4"/>
<stop offset="1" stop-color="#7D218C" stop-opacity="0.4"/>
</linearGradient>
<linearGradient id="paint38_linear" x1="462.377" y1="590.499" x2="535.216" y2="402.568" gradientUnits="userSpaceOnUse">
<stop stop-color="#801CFF" stop-opacity="0.4"/>
<stop offset="1" stop-color="#7D218C" stop-opacity="0.4"/>
</linearGradient>
<linearGradient id="paint39_linear" x1="460.768" y1="589.875" x2="536.875" y2="403.244" gradientUnits="userSpaceOnUse">
<stop stop-color="#801CFF" stop-opacity="0.4"/>
<stop offset="1" stop-color="#7D218C" stop-opacity="0.4"/>
</linearGradient>
<linearGradient id="paint40_linear" x1="459.171" y1="589.223" x2="538.524" y2="403.949" gradientUnits="userSpaceOnUse">
<stop stop-color="#801CFF" stop-opacity="0.4"/>
<stop offset="1" stop-color="#7D218C" stop-opacity="0.4"/>
</linearGradient>
<linearGradient id="paint41_linear" x1="457.585" y1="588.543" x2="540.159" y2="404.681" gradientUnits="userSpaceOnUse">
<stop stop-color="#801CFF" stop-opacity="0.4"/>
<stop offset="1" stop-color="#7D218C" stop-opacity="0.4"/>
</linearGradient>
<linearGradient id="paint42_linear" x1="456.011" y1="587.836" x2="541.781" y2="405.444" gradientUnits="userSpaceOnUse">
<stop stop-color="#801CFF" stop-opacity="0.4"/>
<stop offset="1" stop-color="#7D218C" stop-opacity="0.4"/>
</linearGradient>
<linearGradient id="paint43_linear" x1="454.449" y1="587.101" x2="543.389" y2="406.234" gradientUnits="userSpaceOnUse">
<stop stop-color="#801CFF" stop-opacity="0.4"/>
<stop offset="1" stop-color="#7D218C" stop-opacity="0.4"/>
</linearGradient>
<linearGradient id="paint44_linear" x1="452.901" y1="586.339" x2="544.985" y2="407.051" gradientUnits="userSpaceOnUse">
<stop stop-color="#801CFF" stop-opacity="0.4"/>
<stop offset="1" stop-color="#7D218C" stop-opacity="0.4"/>
</linearGradient>
<linearGradient id="paint45_linear" x1="451.366" y1="585.551" x2="546.565" y2="407.898" gradientUnits="userSpaceOnUse">
<stop stop-color="#801CFF" stop-opacity="0.4"/>
<stop offset="1" stop-color="#7D218C" stop-opacity="0.4"/>
</linearGradient>
<linearGradient id="paint46_linear" x1="449.845" y1="584.736" x2="548.129" y2="408.771" gradientUnits="userSpaceOnUse">
<stop stop-color="#801CFF" stop-opacity="0.4"/>
<stop offset="1" stop-color="#7D218C" stop-opacity="0.4"/>
</linearGradient>
<linearGradient id="paint47_linear" x1="448.339" y1="583.894" x2="549.68" y2="409.671" gradientUnits="userSpaceOnUse">
<stop stop-color="#801CFF" stop-opacity="0.4"/>
<stop offset="1" stop-color="#7D218C" stop-opacity="0.4"/>
</linearGradient>
<linearGradient id="paint48_linear" x1="446.847" y1="583.026" x2="551.213" y2="410.598" gradientUnits="userSpaceOnUse">
<stop stop-color="#801CFF" stop-opacity="0.4"/>
<stop offset="1" stop-color="#7D218C" stop-opacity="0.4"/>
</linearGradient>
<linearGradient id="paint49_linear" x1="445.371" y1="582.133" x2="552.73" y2="411.553" gradientUnits="userSpaceOnUse">
<stop stop-color="#801CFF" stop-opacity="0.4"/>
<stop offset="1" stop-color="#7D218C" stop-opacity="0.4"/>
</linearGradient>
<linearGradient id="paint50_linear" x1="443.911" y1="581.213" x2="554.231" y2="412.533" gradientUnits="userSpaceOnUse">
<stop stop-color="#801CFF" stop-opacity="0.4"/>
<stop offset="1" stop-color="#7D218C" stop-opacity="0.4"/>
</linearGradient>
<linearGradient id="paint51_linear" x1="442.467" y1="580.268" x2="555.714" y2="413.539" gradientUnits="userSpaceOnUse">
<stop stop-color="#801CFF" stop-opacity="0.4"/>
<stop offset="1" stop-color="#7D218C" stop-opacity="0.4"/>
</linearGradient>
<linearGradient id="paint52_linear" x1="441.039" y1="579.298" x2="557.179" y2="414.571" gradientUnits="userSpaceOnUse">
<stop stop-color="#801CFF" stop-opacity="0.4"/>
<stop offset="1" stop-color="#7D218C" stop-opacity="0.4"/>
</linearGradient>
<linearGradient id="paint53_linear" x1="439.63" y1="578.303" x2="558.626" y2="415.628" gradientUnits="userSpaceOnUse">
<stop stop-color="#801CFF" stop-opacity="0.4"/>
<stop offset="1" stop-color="#7D218C" stop-opacity="0.4"/>
</linearGradient>
<linearGradient id="paint54_linear" x1="438.237" y1="577.285" x2="560.054" y2="416.711" gradientUnits="userSpaceOnUse">
<stop stop-color="#801CFF" stop-opacity="0.4"/>
<stop offset="1" stop-color="#7D218C" stop-opacity="0.4"/>
</linearGradient>
<linearGradient id="paint55_linear" x1="436.862" y1="576.242" x2="561.463" y2="417.818" gradientUnits="userSpaceOnUse">
<stop stop-color="#801CFF" stop-opacity="0.4"/>
<stop offset="1" stop-color="#7D218C" stop-opacity="0.4"/>
</linearGradient>
<linearGradient id="paint56_linear" x1="435.507" y1="575.174" x2="562.854" y2="418.95" gradientUnits="userSpaceOnUse">
<stop stop-color="#801CFF" stop-opacity="0.4"/>
<stop offset="1" stop-color="#7D218C" stop-opacity="0.4"/>
</linearGradient>
<linearGradient id="paint57_linear" x1="434.169" y1="574.083" x2="564.223" y2="420.105" gradientUnits="userSpaceOnUse">
<stop stop-color="#801CFF" stop-opacity="0.4"/>
<stop offset="1" stop-color="#7D218C" stop-opacity="0.4"/>
</linearGradient>
<linearGradient id="paint58_linear" x1="432.851" y1="572.97" x2="565.573" y2="421.285" gradientUnits="userSpaceOnUse">
<stop stop-color="#801CFF" stop-opacity="0.4"/>
<stop offset="1" stop-color="#7D218C" stop-opacity="0.4"/>
</linearGradient>
<linearGradient id="paint59_linear" x1="431.552" y1="571.834" x2="566.901" y2="422.488" gradientUnits="userSpaceOnUse">
<stop stop-color="#801CFF" stop-opacity="0.4"/>
<stop offset="1" stop-color="#7D218C" stop-opacity="0.4"/>
</linearGradient>
<linearGradient id="paint60_linear" x1="430.274" y1="570.674" x2="568.208" y2="423.713" gradientUnits="userSpaceOnUse">
<stop stop-color="#801CFF" stop-opacity="0.4"/>
<stop offset="1" stop-color="#7D218C" stop-opacity="0.4"/>
</linearGradient>
<linearGradient id="paint61_linear" x1="429.016" y1="569.494" x2="569.494" y2="424.962" gradientUnits="userSpaceOnUse">
<stop stop-color="#801CFF" stop-opacity="0.4"/>
<stop offset="1" stop-color="#7D218C" stop-opacity="0.4"/>
</linearGradient>
<linearGradient id="paint62_linear" x1="427.779" y1="568.29" x2="570.759" y2="426.233" gradientUnits="userSpaceOnUse">
<stop stop-color="#801CFF" stop-opacity="0.4"/>
<stop offset="1" stop-color="#7D218C" stop-opacity="0.4"/>
</linearGradient>
<linearGradient id="paint63_linear" x1="426.563" y1="567.066" x2="572" y2="427.525" gradientUnits="userSpaceOnUse">
<stop stop-color="#801CFF" stop-opacity="0.4"/>
<stop offset="1" stop-color="#7D218C" stop-opacity="0.4"/>
</linearGradient>
<linearGradient id="paint64_linear" x1="425.368" y1="565.821" x2="573.218" y2="428.84" gradientUnits="userSpaceOnUse">
<stop stop-color="#801CFF" stop-opacity="0.4"/>
<stop offset="1" stop-color="#7D218C" stop-opacity="0.4"/>
</linearGradient>
<linearGradient id="paint65_linear" x1="424.195" y1="564.554" x2="574.414" y2="430.175" gradientUnits="userSpaceOnUse">
<stop stop-color="#801CFF" stop-opacity="0.4"/>
<stop offset="1" stop-color="#7D218C" stop-opacity="0.4"/>
</linearGradient>
<linearGradient id="paint66_linear" x1="423.045" y1="563.268" x2="575.586" y2="431.53" gradientUnits="userSpaceOnUse">
<stop stop-color="#801CFF" stop-opacity="0.4"/>
<stop offset="1" stop-color="#7D218C" stop-opacity="0.4"/>
</linearGradient>
<linearGradient id="paint67_linear" x1="421.918" y1="561.962" x2="576.735" y2="432.906" gradientUnits="userSpaceOnUse">
<stop stop-color="#801CFF" stop-opacity="0.4"/>
<stop offset="1" stop-color="#7D218C" stop-opacity="0.4"/>
</linearGradient>
<linearGradient id="paint68_linear" x1="420.813" y1="560.636" x2="577.858" y2="434.302" gradientUnits="userSpaceOnUse">
<stop stop-color="#801CFF" stop-opacity="0.4"/>
<stop offset="1" stop-color="#7D218C" stop-opacity="0.4"/>
</linearGradient>
<linearGradient id="paint69_linear" x1="419.731" y1="559.291" x2="578.958" y2="435.717" gradientUnits="userSpaceOnUse">
<stop stop-color="#801CFF" stop-opacity="0.4"/>
<stop offset="1" stop-color="#7D218C" stop-opacity="0.4"/>
</linearGradient>
<linearGradient id="paint70_linear" x1="418.674" y1="557.928" x2="580.033" y2="437.152" gradientUnits="userSpaceOnUse">
<stop stop-color="#801CFF" stop-opacity="0.4"/>
<stop offset="1" stop-color="#7D218C" stop-opacity="0.4"/>
</linearGradient>
<linearGradient id="paint71_linear" x1="417.64" y1="556.546" x2="581.082" y2="438.604" gradientUnits="userSpaceOnUse">
<stop stop-color="#801CFF" stop-opacity="0.4"/>
<stop offset="1" stop-color="#7D218C" stop-opacity="0.4"/>
</linearGradient>
<linearGradient id="paint72_linear" x1="416.63" y1="555.147" x2="582.106" y2="440.075" gradientUnits="userSpaceOnUse">
<stop stop-color="#801CFF" stop-opacity="0.4"/>
<stop offset="1" stop-color="#7D218C" stop-opacity="0.4"/>
</linearGradient>
<linearGradient id="paint73_linear" x1="415.646" y1="553.729" x2="583.104" y2="441.563" gradientUnits="userSpaceOnUse">
<stop stop-color="#801CFF" stop-opacity="0.4"/>
<stop offset="1" stop-color="#7D218C" stop-opacity="0.4"/>
</linearGradient>
<linearGradient id="paint74_linear" x1="414.686" y1="552.295" x2="584.077" y2="443.069" gradientUnits="userSpaceOnUse">
<stop stop-color="#801CFF" stop-opacity="0.4"/>
<stop offset="1" stop-color="#7D218C" stop-opacity="0.4"/>
</linearGradient>
<linearGradient id="paint75_linear" x1="413.751" y1="550.845" x2="585.022" y2="444.592" gradientUnits="userSpaceOnUse">
<stop stop-color="#801CFF" stop-opacity="0.4"/>
<stop offset="1" stop-color="#7D218C" stop-opacity="0.4"/>
</linearGradient>
<linearGradient id="paint76_linear" x1="412.842" y1="549.379" x2="585.941" y2="446.131" gradientUnits="userSpaceOnUse">
<stop stop-color="#801CFF" stop-opacity="0.4"/>
<stop offset="1" stop-color="#7D218C" stop-opacity="0.4"/>
</linearGradient>
<linearGradient id="paint77_linear" x1="411.958" y1="547.897" x2="586.833" y2="447.686" gradientUnits="userSpaceOnUse">
<stop stop-color="#801CFF" stop-opacity="0.4"/>
<stop offset="1" stop-color="#7D218C" stop-opacity="0.4"/>
</linearGradient>
<linearGradient id="paint78_linear" x1="411.1" y1="546.399" x2="587.697" y2="449.256" gradientUnits="userSpaceOnUse">
<stop stop-color="#801CFF" stop-opacity="0.4"/>
<stop offset="1" stop-color="#7D218C" stop-opacity="0.4"/>
</linearGradient>
<linearGradient id="paint79_linear" x1="410.268" y1="544.887" x2="588.534" y2="450.84" gradientUnits="userSpaceOnUse">
<stop stop-color="#801CFF" stop-opacity="0.4"/>
<stop offset="1" stop-color="#7D218C" stop-opacity="0.4"/>
</linearGradient>
<linearGradient id="paint80_linear" x1="409.464" y1="543.361" x2="589.344" y2="452.439" gradientUnits="userSpaceOnUse">
<stop stop-color="#801CFF" stop-opacity="0.4"/>
<stop offset="1" stop-color="#7D218C" stop-opacity="0.4"/>
</linearGradient>
<linearGradient id="paint81_linear" x1="408.686" y1="541.82" x2="590.126" y2="454.052" gradientUnits="userSpaceOnUse">
<stop stop-color="#801CFF" stop-opacity="0.4"/>
<stop offset="1" stop-color="#7D218C" stop-opacity="0.4"/>
</linearGradient>
<linearGradient id="paint82_linear" x1="407.935" y1="540.267" x2="590.878" y2="455.679" gradientUnits="userSpaceOnUse">
<stop stop-color="#801CFF" stop-opacity="0.4"/>
<stop offset="1" stop-color="#7D218C" stop-opacity="0.4"/>
</linearGradient>
<linearGradient id="paint83_linear" x1="407.21" y1="538.7" x2="591.602" y2="457.317" gradientUnits="userSpaceOnUse">
<stop stop-color="#801CFF" stop-opacity="0.4"/>
<stop offset="1" stop-color="#7D218C" stop-opacity="0.4"/>
</linearGradient>
<linearGradient id="paint84_linear" x1="406.514" y1="537.122" x2="592.299" y2="458.969" gradientUnits="userSpaceOnUse">
<stop stop-color="#801CFF" stop-opacity="0.4"/>
<stop offset="1" stop-color="#7D218C" stop-opacity="0.4"/>
</linearGradient>
<linearGradient id="paint85_linear" x1="405.845" y1="535.531" x2="592.964" y2="460.633" gradientUnits="userSpaceOnUse">
<stop stop-color="#801CFF" stop-opacity="0.4"/>
<stop offset="1" stop-color="#7D218C" stop-opacity="0.4"/>
</linearGradient>
<linearGradient id="paint86_linear" x1="405.204" y1="533.929" x2="593.603" y2="462.308" gradientUnits="userSpaceOnUse">
<stop stop-color="#801CFF" stop-opacity="0.4"/>
<stop offset="1" stop-color="#7D218C" stop-opacity="0.4"/>
</linearGradient>
<linearGradient id="paint87_linear" x1="404.591" y1="532.315" x2="594.21" y2="463.993" gradientUnits="userSpaceOnUse">
<stop stop-color="#801CFF" stop-opacity="0.4"/>
<stop offset="1" stop-color="#7D218C" stop-opacity="0.4"/>
</linearGradient>
<linearGradient id="paint88_linear" x1="404.007" y1="530.692" x2="594.79" y2="465.689" gradientUnits="userSpaceOnUse">
<stop stop-color="#801CFF" stop-opacity="0.4"/>
<stop offset="1" stop-color="#7D218C" stop-opacity="0.4"/>
</linearGradient>
<linearGradient id="paint89_linear" x1="403.45" y1="529.059" x2="595.339" y2="467.396" gradientUnits="userSpaceOnUse">
<stop stop-color="#801CFF" stop-opacity="0.4"/>
<stop offset="1" stop-color="#7D218C" stop-opacity="0.4"/>
</linearGradient>
<linearGradient id="paint90_linear" x1="402.923" y1="527.415" x2="595.858" y2="469.111" gradientUnits="userSpaceOnUse">
<stop stop-color="#801CFF" stop-opacity="0.4"/>
<stop offset="1" stop-color="#7D218C" stop-opacity="0.4"/>
</linearGradient>
<linearGradient id="paint91_linear" x1="402.424" y1="525.763" x2="596.348" y2="470.835" gradientUnits="userSpaceOnUse">
<stop stop-color="#801CFF" stop-opacity="0.4"/>
<stop offset="1" stop-color="#7D218C" stop-opacity="0.4"/>
</linearGradient>
<linearGradient id="paint92_linear" x1="401.954" y1="524.102" x2="596.806" y2="472.567" gradientUnits="userSpaceOnUse">
<stop stop-color="#801CFF" stop-opacity="0.4"/>
<stop offset="1" stop-color="#7D218C" stop-opacity="0.4"/>
</linearGradient>
<linearGradient id="paint93_linear" x1="401.513" y1="522.434" x2="597.236" y2="474.307" gradientUnits="userSpaceOnUse">
<stop stop-color="#801CFF" stop-opacity="0.4"/>
<stop offset="1" stop-color="#7D218C" stop-opacity="0.4"/>
</linearGradient>
<linearGradient id="paint94_linear" x1="401.101" y1="520.76" x2="597.634" y2="476.056" gradientUnits="userSpaceOnUse">
<stop stop-color="#801CFF" stop-opacity="0.4"/>
<stop offset="1" stop-color="#7D218C" stop-opacity="0.4"/>
</linearGradient>
<linearGradient id="paint95_linear" x1="400.718" y1="519.077" x2="598.001" y2="477.81" gradientUnits="userSpaceOnUse">
<stop stop-color="#801CFF" stop-opacity="0.4"/>
<stop offset="1" stop-color="#7D218C" stop-opacity="0.4"/>
</linearGradient>
<linearGradient id="paint96_linear" x1="400.366" y1="517.387" x2="598.339" y2="479.569" gradientUnits="userSpaceOnUse">
<stop stop-color="#801CFF" stop-opacity="0.4"/>
<stop offset="1" stop-color="#7D218C" stop-opacity="0.4"/>
</linearGradient>
<linearGradient id="paint97_linear" x1="400.042" y1="515.692" x2="598.645" y2="481.335" gradientUnits="userSpaceOnUse">
<stop stop-color="#801CFF" stop-opacity="0.4"/>
<stop offset="1" stop-color="#7D218C" stop-opacity="0.4"/>
</linearGradient>
<linearGradient id="paint98_linear" x1="399.749" y1="513.991" x2="598.921" y2="483.106" gradientUnits="userSpaceOnUse">
<stop stop-color="#801CFF" stop-opacity="0.4"/>
<stop offset="1" stop-color="#7D218C" stop-opacity="0.4"/>
</linearGradient>
<linearGradient id="paint99_linear" x1="399.484" y1="512.286" x2="599.165" y2="484.881" gradientUnits="userSpaceOnUse">
<stop stop-color="#801CFF" stop-opacity="0.4"/>
<stop offset="1" stop-color="#7D218C" stop-opacity="0.4"/>
</linearGradient>
</defs>
</svg>
