<svg width="292" height="292" viewBox="0 0 292 292" fill="none" xmlns="http://www.w3.org/2000/svg">
<path d="M198 146C198 139.171 196.655 132.409 194.042 126.1C191.428 119.792 187.598 114.059 182.77 109.23C177.941 104.402 172.208 100.572 165.9 97.9583C159.591 95.345 152.829 94 146 94C139.171 94 132.409 95.345 126.1 97.9583C119.792 100.572 114.059 104.402 109.23 109.23C104.402 114.059 100.572 119.792 97.9583 126.1C95.345 132.409 94 139.171 94 146H95.397C95.397 139.355 96.7059 132.775 99.2489 126.635C101.792 120.496 105.519 114.917 110.218 110.218C114.917 105.519 120.496 101.792 126.635 99.2489C132.775 96.7059 139.355 95.397 146 95.397C152.645 95.397 159.225 96.7059 165.365 99.2489C171.504 101.792 177.083 105.519 181.782 110.218C186.481 114.917 190.208 120.496 192.751 126.635C195.294 132.775 196.603 139.355 196.603 146H198Z" fill="white" fill-opacity="0.67"/>
<path d="M227 146C227 135.363 224.905 124.83 220.834 115.003C216.764 105.175 210.797 96.2459 203.276 88.7243C195.754 81.2028 186.825 75.2364 176.997 71.1658C167.17 67.0951 156.637 65 146 65C135.363 65 124.83 67.0951 115.003 71.1658C105.175 75.2364 96.2459 81.2028 88.7243 88.7244C81.2028 96.2459 75.2364 105.175 71.1658 115.003C67.0951 124.83 65 135.363 65 146H66.1083C66.1083 135.508 68.1748 125.12 72.1897 115.427C76.2046 105.734 82.0894 96.9267 89.508 89.5081C96.9267 82.0894 105.734 76.2046 115.427 72.1897C125.12 68.1748 135.508 66.1083 146 66.1083C156.492 66.1083 166.88 68.1748 176.573 72.1897C186.266 76.2046 195.073 82.0894 202.492 89.5081C209.911 96.9267 215.795 105.734 219.81 115.427C223.825 125.12 225.892 135.508 225.892 146H227Z" fill="white" fill-opacity="0.67"/>
<path d="M256 146C256 131.555 253.155 117.251 247.627 103.905C242.099 90.559 233.996 78.4327 223.782 68.2183C213.567 58.0038 201.441 49.9013 188.095 44.3733C174.749 38.8452 160.445 36 146 36C131.555 36 117.251 38.8452 103.905 44.3733C90.559 49.9013 78.4327 58.0038 68.2183 68.2183C58.0038 78.4327 49.9013 90.559 44.3732 103.905C38.8452 117.251 36 131.555 36 146H37.5051C37.5051 131.752 40.3114 117.644 45.7638 104.481C51.2162 91.3176 59.2079 79.3572 69.2825 69.2825C79.3572 59.2079 91.3176 51.2162 104.481 45.7638C117.644 40.3114 131.752 37.5051 146 37.5051C160.248 37.5051 174.356 40.3114 187.519 45.7638C200.682 51.2162 212.643 59.2079 222.717 69.2825C232.792 79.3572 240.784 91.3176 246.236 104.481C251.689 117.644 254.495 131.752 254.495 146H256Z" fill="white" fill-opacity="0.67"/>
<path d="M284 146C284 127.878 280.431 109.933 273.495 93.1897C266.56 76.4468 256.395 61.2337 243.581 48.4193C230.766 35.6048 215.553 25.4398 198.81 18.5046C182.067 11.5695 164.122 8 146 8C127.878 8 109.933 11.5695 93.1897 18.5046C76.4467 25.4398 61.2337 35.6048 48.4193 48.4193C35.6048 61.2338 25.4398 76.4468 18.5046 93.1897C11.5695 109.933 8 127.878 8 146H9.5323C9.5323 128.079 13.0621 110.333 19.9203 93.7761C26.7784 77.2191 36.8306 62.175 49.5028 49.5028C62.175 36.8306 77.219 26.7784 93.7761 19.9203C110.333 13.0621 128.079 9.5323 146 9.5323C163.921 9.5323 181.667 13.0621 198.224 19.9203C214.781 26.7784 229.825 36.8306 242.497 49.5028C255.169 62.175 265.222 77.219 272.08 93.7761C278.938 110.333 282.468 128.079 282.468 146H284Z" fill="white" fill-opacity="0.67"/>
<path d="M292 146C292 126.827 288.224 107.842 280.886 90.1282C273.549 72.4147 262.795 56.3198 249.238 42.7624C235.68 29.2051 219.585 18.4508 201.872 11.1136C184.158 3.7764 165.173 -8.38078e-07 146 0C126.827 8.38078e-07 107.842 3.7764 90.1282 11.1136C72.4147 18.4508 56.3198 29.2051 42.7624 42.7624C29.205 56.3198 18.4508 72.4147 11.1136 90.1282C3.7764 107.842 -1.67616e-06 126.827 0 146H1.62114C1.62114 127.04 5.35561 108.265 12.6113 90.7486C19.867 73.2318 30.5019 57.3156 43.9087 43.9087C57.3155 30.5019 73.2317 19.867 90.7486 12.6113C108.265 5.35561 127.04 1.62114 146 1.62114C164.96 1.62114 183.735 5.35561 201.251 12.6113C218.768 19.867 234.684 30.5019 248.091 43.9087C261.498 57.3155 272.133 73.2318 279.389 90.7486C286.644 108.265 290.379 127.04 290.379 146H292Z" fill="white" fill-opacity="0.67"/>
<circle cx="93" cy="66" r="6" fill="url(#paint0_radial)"/>
<circle cx="165" cy="30" r="4" fill="url(#paint1_radial)"/>
<circle cx="233" cy="61" r="8" fill="url(#paint2_radial)"/>
<circle cx="124" cy="125" r="6" fill="url(#paint3_radial)"/>
<g clip-path="url(#clip0)">
<rect x="137.5" y="140.5" width="6" height="6" stroke="#C4C4C4" stroke-opacity="0.8"/>
</g>
<g clip-path="url(#clip1)">
<rect x="148.5" y="140.5" width="6" height="6" stroke="#C4C4C4" stroke-opacity="0.8"/>
</g>
<path d="M277.209 110.785C267.736 76.1194 244.881 46.636 213.671 28.8211L146.5 146.5L277.209 110.785Z" fill="url(#paint4_linear)" fill-opacity="0.2"/>
<defs>
<radialGradient id="paint0_radial" cx="0" cy="0" r="1" gradientUnits="userSpaceOnUse" gradientTransform="translate(93 66) rotate(90) scale(6)">
<stop stop-color="#4E494F"/>
<stop offset="1" stop-color="#4E494F" stop-opacity="0.6"/>
</radialGradient>
<radialGradient id="paint1_radial" cx="0" cy="0" r="1" gradientUnits="userSpaceOnUse" gradientTransform="translate(165 30) rotate(90) scale(4)">
<stop stop-color="#4E494F"/>
<stop offset="1" stop-color="#4E494F" stop-opacity="0.6"/>
</radialGradient>
<radialGradient id="paint2_radial" cx="0" cy="0" r="1" gradientUnits="userSpaceOnUse" gradientTransform="translate(233 61) rotate(90) scale(8)">
<stop stop-color="#C4C4C4"/>
<stop offset="1" stop-color="#C4C4C4" stop-opacity="0.64"/>
</radialGradient>
<radialGradient id="paint3_radial" cx="0" cy="0" r="1" gradientUnits="userSpaceOnUse" gradientTransform="translate(124 125) rotate(90) scale(6)">
<stop stop-color="#4E494F"/>
<stop offset="1" stop-color="#4E494F" stop-opacity="0.6"/>
</radialGradient>
<linearGradient id="paint4_linear" x1="250.5" y1="60" x2="147" y2="146" gradientUnits="userSpaceOnUse">
<stop stop-color="#532854" stop-opacity="0.8"/>
<stop offset="1" stop-color="#A9A9A9" stop-opacity="0"/>
</linearGradient>
<clipPath id="clip0">
<rect width="6" height="6" fill="white" transform="translate(137 140)"/>
</clipPath>
<clipPath id="clip1">
<rect width="6" height="6" fill="white" transform="translate(149 140)"/>
</clipPath>
</defs>
</svg>
