<svg width="440" height="428" viewBox="0 0 440 428" fill="none" xmlns="http://www.w3.org/2000/svg">
<g opacity="0.05">
<path opacity="0.9" d="M41.1901 97.4909C22.0909 148.368 38.5845 217.048 68.0935 270.78C144.141 410.284 329.199 331.406 326.007 268.05C330.346 207.61 275.99 189.658 257.552 155.773C154.302 -35.4928 56.5368 54.5925 41.1901 97.4909Z" fill="#9656A6"/>
</g>
<path d="M94.7864 274.222H18.9258V239.975L94.7864 149.79H131.09V241.92H149.902V274.222H131.09V302.247H94.7864V274.222ZM94.7864 241.92V194.745L54.6931 241.92H94.7864Z" fill="white"/>
<path d="M162.88 226.684C162.88 198.185 168.008 178.238 178.264 166.843C188.52 155.449 204.149 149.755 225.152 149.764C235.233 149.764 243.516 151.01 249.998 153.504C255.887 155.626 261.28 158.931 265.844 163.215C269.69 166.888 272.949 171.131 275.505 175.794C278.035 180.664 279.941 185.833 281.178 191.178C283.996 202.599 285.403 214.322 285.367 226.086C285.367 253.28 280.766 273.181 271.566 285.789C262.365 298.397 246.52 304.706 224.03 304.714C211.413 304.714 201.22 302.703 193.449 298.68C185.615 294.592 179.017 288.484 174.337 280.99C170.722 275.471 167.908 267.92 165.897 258.337C163.809 247.918 162.798 237.311 162.88 226.684ZM204.195 226.784C204.195 245.9 205.878 258.936 209.244 265.892C212.61 272.849 217.501 276.344 223.918 276.377C225.954 276.4 227.974 276.018 229.862 275.254C231.749 274.49 233.466 273.359 234.913 271.926C238.022 268.959 240.307 264.272 241.77 257.864C243.233 251.456 243.964 241.482 243.964 227.943C243.964 208.046 242.277 194.669 238.903 187.812C235.528 180.956 230.467 177.531 223.718 177.54C216.837 177.54 211.85 181.035 208.758 188.024C205.666 195.014 204.145 207.934 204.195 226.784Z" fill="white"/>
<path d="M374.118 274.221H298.258V239.974L374.118 149.789H410.422V241.919H429.296V274.221H410.422V302.246H374.118V274.221ZM374.118 241.919V194.744L334.037 241.919H374.118Z" fill="white"/>
<g opacity="0.3">
<path opacity="0.3" d="M161.258 97.1665C161.258 97.6281 161.121 98.0794 160.864 98.463C160.608 98.8467 160.243 99.1455 159.816 99.3215C159.389 99.4976 158.92 99.5431 158.467 99.4521C158.015 99.3611 157.599 99.1378 157.274 98.8106C156.948 98.4833 156.727 98.0667 156.639 97.6137C156.55 97.1606 156.598 96.6915 156.777 96.2657C156.955 95.84 157.256 95.4767 157.641 95.222C158.026 94.9674 158.478 94.8328 158.939 94.8352C159.245 94.8352 159.547 94.8956 159.829 95.0129C160.112 95.1302 160.368 95.3022 160.583 95.5188C160.799 95.7355 160.969 95.9926 161.085 96.2753C161.201 96.5581 161.26 96.861 161.258 97.1665Z" fill="#6F2A87"/>
<path opacity="0.3" d="M1.64562 186.715C2.55447 186.715 3.29124 185.979 3.29124 185.07C3.29124 184.161 2.55447 183.424 1.64562 183.424C0.73677 183.424 0 184.161 0 185.07C0 185.979 0.73677 186.715 1.64562 186.715Z" fill="#6F2A87"/>
<path opacity="0.3" d="M273.522 427.038C274.824 427.038 275.879 425.983 275.879 424.682C275.879 423.381 274.824 422.326 273.522 422.326C272.221 422.326 271.166 423.381 271.166 424.682C271.166 425.983 272.221 427.038 273.522 427.038Z" fill="#6F2A87"/>
<path opacity="0.3" d="M330.183 331.169C331.092 331.169 331.829 330.432 331.829 329.523C331.829 328.614 331.092 327.877 330.183 327.877C329.275 327.877 328.538 328.614 328.538 329.523C328.538 330.432 329.275 331.169 330.183 331.169Z" fill="#6F2A87"/>
<path opacity="0.3" d="M439.481 34.8326C439.481 35.1581 439.384 35.4763 439.204 35.7469C439.023 36.0175 438.766 36.2284 438.465 36.353C438.164 36.4775 437.833 36.5101 437.514 36.4466C437.195 36.3831 436.902 36.2264 436.672 35.9963C436.442 35.7661 436.285 35.4729 436.221 35.1537C436.158 34.8345 436.19 34.5036 436.315 34.2029C436.44 33.9022 436.65 33.6452 436.921 33.4643C437.192 33.2835 437.51 33.187 437.835 33.187C438.272 33.187 438.69 33.3604 438.999 33.669C439.308 33.9776 439.481 34.3962 439.481 34.8326Z" fill="#6F2A87"/>
<path opacity="0.3" d="M126.039 1.64562C126.039 1.97109 125.943 2.28926 125.762 2.55988C125.581 2.8305 125.324 3.04142 125.023 3.16598C124.723 3.29053 124.392 3.32312 124.073 3.25963C123.753 3.19613 123.46 3.03939 123.23 2.80925C123 2.57911 122.843 2.28589 122.78 1.96667C122.716 1.64745 122.749 1.31657 122.873 1.01587C122.998 0.715171 123.209 0.458158 123.479 0.277334C123.75 0.0965113 124.068 0 124.394 0C124.829 0.00326184 125.246 0.177687 125.554 0.485597C125.862 0.793507 126.036 1.21018 126.039 1.64562Z" fill="#6F2A87"/>
<path opacity="0.3" d="M256.88 87.991C257.788 87.991 258.525 87.2542 258.525 86.3453C258.525 85.4365 257.788 84.6997 256.88 84.6997C255.971 84.6997 255.234 85.4365 255.234 86.3453C255.234 87.2542 255.971 87.991 256.88 87.991Z" fill="#6F2A87"/>
</g>
<path d="M86.7445 88.0034C101.83 88.0034 114.059 75.7742 114.059 60.6886C114.059 45.603 101.83 33.3738 86.7445 33.3738C71.6589 33.3738 59.4297 45.603 59.4297 60.6886C59.4297 75.7742 71.6589 88.0034 86.7445 88.0034Z" fill="#6F2A87"/>
<path opacity="0.7" d="M86.7445 88.0034C101.83 88.0034 114.059 75.7742 114.059 60.6886C114.059 45.603 101.83 33.3738 86.7445 33.3738C71.6589 33.3738 59.4297 45.603 59.4297 60.6886C59.4297 75.7742 71.6589 88.0034 86.7445 88.0034Z" fill="white"/>
<path opacity="0.2" d="M77.3317 40.0802C73.6117 40.0688 69.9289 40.8198 66.5105 42.2868C62.3091 46.9044 59.8155 52.8213 59.4443 59.0531C59.0732 65.285 60.8471 71.456 64.4707 76.5396C68.0943 81.6231 73.3493 85.3127 79.3613 86.9946C85.3734 88.6764 91.78 88.2491 97.5155 85.7836C101.071 81.8648 103.413 76.9979 104.256 71.7738C105.099 66.5498 104.407 61.1933 102.265 56.3548C100.122 51.5164 96.6208 47.4041 92.186 44.5173C87.7511 41.6305 82.5735 40.0934 77.2818 40.0927L77.3317 40.0802Z" fill="#6F2A87"/>
<path opacity="0.2" d="M74.6144 47.2985C74.6144 47.7917 74.4682 48.2737 74.1942 48.6838C73.9202 49.0938 73.5308 49.4134 73.0752 49.6021C72.6196 49.7908 72.1183 49.8402 71.6346 49.744C71.151 49.6478 70.7067 49.4103 70.358 49.0616C70.0093 48.7129 69.7718 48.2686 69.6756 47.785C69.5794 47.3013 69.6288 46.8 69.8175 46.3444C70.0062 45.8888 70.3258 45.4994 70.7358 45.2254C71.1458 44.9514 71.6279 44.8052 72.1211 44.8052C72.7823 44.8052 73.4165 45.0679 73.8841 45.5355C74.3517 46.0031 74.6144 46.6373 74.6144 47.2985Z" fill="#6F2A87"/>
<path opacity="0.2" d="M103.985 44.8059C103.985 45.299 103.839 45.7811 103.565 46.1911C103.291 46.6011 102.902 46.9207 102.446 47.1094C101.99 47.2981 101.489 47.3475 101.005 47.2513C100.522 47.1551 100.078 46.9176 99.7288 46.5689C99.3801 46.2202 99.1427 45.776 99.0464 45.2923C98.9502 44.8086 98.9996 44.3073 99.1883 43.8517C99.377 43.3961 99.6966 43.0067 100.107 42.7327C100.517 42.4587 100.999 42.3125 101.492 42.3125C102.153 42.3125 102.787 42.5752 103.255 43.0428C103.723 43.5104 103.985 44.1446 103.985 44.8059Z" fill="#6F2A87"/>
<path opacity="0.2" d="M98.9986 62.6079C98.9986 63.4167 98.7587 64.2073 98.3094 64.8797C97.8601 65.5522 97.2215 66.0763 96.4743 66.3858C95.7271 66.6953 94.9049 66.7762 94.1117 66.6185C93.3185 66.4607 92.5899 66.0712 92.018 65.4994C91.4461 64.9275 91.0567 64.1989 90.8989 63.4057C90.7411 62.6124 90.8221 61.7903 91.1316 61.0431C91.4411 60.2959 91.9652 59.6573 92.6376 59.2079C93.3101 58.7586 94.1007 58.5188 94.9094 58.5188C95.9939 58.5188 97.034 58.9496 97.8009 59.7165C98.5677 60.4833 98.9986 61.5234 98.9986 62.6079Z" fill="#6F2A87"/>
<path opacity="0.2" d="M86.0081 74.2649C86.0081 75.3449 85.6879 76.4006 85.0879 77.2986C84.4879 78.1966 83.635 78.8964 82.6373 79.3097C81.6395 79.723 80.5416 79.8312 79.4823 79.6205C78.4231 79.4098 77.4502 78.8897 76.6865 78.126C75.9228 77.3624 75.4028 76.3894 75.1921 75.3302C74.9814 74.271 75.0895 73.173 75.5028 72.1753C75.9161 71.1775 76.616 70.3247 77.514 69.7247C78.4119 69.1247 79.4676 68.8044 80.5476 68.8044C81.9958 68.8044 83.3847 69.3797 84.4088 70.4038C85.4328 71.4278 86.0081 72.8167 86.0081 74.2649Z" fill="#6F2A87"/>
<path d="M410.471 390.17C413.512 377.283 405.531 364.371 392.645 361.33C379.759 358.289 366.847 366.269 363.805 379.156C360.764 392.042 368.745 404.954 381.631 407.995C394.517 411.037 407.429 403.056 410.471 390.17Z" fill="#6F2A87"/>
<path opacity="0.3" d="M410.471 390.17C413.512 377.283 405.531 364.371 392.645 361.33C379.759 358.289 366.847 366.269 363.805 379.156C360.764 392.042 368.745 404.954 381.631 407.995C394.517 411.037 407.429 403.056 410.471 390.17Z" fill="white"/>
<path opacity="0.4" d="M402.28 366.1C396.965 364.496 391.259 364.787 386.135 366.924C381.011 369.06 376.788 372.909 374.187 377.814C371.586 382.718 370.769 388.373 371.875 393.813C372.981 399.253 375.941 404.14 380.251 407.64C382.486 408.319 384.809 408.663 387.145 408.662C392.094 408.661 396.922 407.128 400.965 404.274C405.009 401.42 408.069 397.384 409.728 392.721C411.386 388.057 411.56 382.995 410.227 378.229C408.893 373.463 406.117 369.226 402.28 366.1Z" fill="#6F2A87"/>
<path d="M364.257 391.858C338.662 403.901 357.749 413.188 393.815 400.223C427.214 388.217 439.943 373.083 410.022 377.783C411.631 384.078 369.804 400.372 364.257 391.858Z" fill="#6F2A87"/>
<path opacity="0.2" d="M401.994 149.791C368.471 172.443 325.073 202.363 313.093 274.222H310.537C322.194 203.161 364.007 172.53 397.543 149.791H401.994Z" fill="black"/>
<path d="M228.579 374.742C207.386 374.742 186.429 365.18 176.219 349.572C169.923 339.922 162.605 319.714 184.397 292.748L186.329 294.319C170.92 313.393 168.078 332.529 178.313 348.213C190.78 367.287 220.189 376.886 245.297 370.055C271.017 363.061 286.625 340.695 288.133 308.693C293.282 199.222 351.44 165.499 393.902 140.877C420.294 125.58 439.356 114.534 435.167 91.209C434.581 87.9801 433.297 85.7485 431.215 84.3772C425.792 80.7992 415.195 83.2801 402.928 86.135C378.855 91.7451 345.892 99.4246 326.257 66.026L328.414 64.7793C347.114 96.6071 377.745 89.4636 402.367 83.7289C415.195 80.7493 426.266 78.1687 432.587 82.3201C435.267 84.078 436.913 86.8581 437.573 90.7976C442.074 115.831 421.367 127.849 395.124 143.059C353.148 167.394 295.676 200.718 290.589 308.867C289.019 342.029 272.737 365.23 245.908 372.523C240.256 374.028 234.429 374.774 228.579 374.742Z" fill="#6F2A87"/>
<path opacity="0.1" d="M228.579 374.742C207.386 374.742 186.429 365.18 176.219 349.572C169.923 339.922 162.605 319.714 184.397 292.748L186.329 294.319C170.92 313.393 168.078 332.529 178.313 348.213C190.78 367.287 220.189 376.886 245.297 370.055C271.017 363.061 286.625 340.695 288.133 308.693C293.282 199.222 351.44 165.499 393.902 140.877C420.294 125.58 439.356 114.534 435.167 91.209C434.581 87.9801 433.297 85.7485 431.215 84.3772C425.792 80.7992 415.195 83.2801 402.928 86.135C378.855 91.7451 345.892 99.4246 326.257 66.026L328.414 64.7793C347.114 96.6071 377.745 89.4636 402.367 83.7289C415.195 80.7493 426.266 78.1687 432.587 82.3201C435.267 84.078 436.913 86.8581 437.573 90.7976C442.074 115.831 421.367 127.849 395.124 143.059C353.148 167.394 295.676 200.718 290.589 308.867C289.019 342.029 272.737 365.23 245.908 372.523C240.256 374.028 234.429 374.774 228.579 374.742Z" fill="white"/>
<path d="M300.588 36.5542C306.332 36.5873 312.039 37.4825 317.518 39.2096C317.518 39.2096 331.231 62.6099 332.852 67.9706C332.278 73.2566 323.365 81.921 323.365 81.921L300.588 36.5542Z" fill="#6F2A87"/>
<path opacity="0.3" d="M300.588 36.5542C306.332 36.5873 312.039 37.4825 317.518 39.2096C317.518 39.2096 331.231 62.6099 332.852 67.9706C332.278 73.2566 323.365 81.921 323.365 81.921L300.588 36.5542Z" fill="white"/>
<path d="M341.205 150.164C335.924 143.707 331.108 136.883 326.794 129.743C325.747 127.94 324.753 126.103 323.814 124.233C323.278 123.173 322.767 122.114 322.268 121.041C321.614 119.998 321.106 118.87 320.76 117.688C319.264 101.892 324.674 90.2608 319.513 77.582L298.968 85.6107C298.968 85.6107 300.713 108.201 304.703 121.764C307.196 130.155 312.781 137.41 318.179 144.13C319.862 146.224 321.483 148.381 323.166 150.488C324.849 152.595 326.544 154.303 328.153 156.285C330.584 159.29 331.382 162.17 329.549 165.71L329.237 166.271C328.714 167.194 331.157 168.241 332.703 166.271C335.196 163.055 334.847 163.254 337.017 160.511C338.338 158.853 339.847 157.046 341.156 155.525C341.787 154.777 342.138 153.832 342.147 152.853C342.156 151.875 341.823 150.923 341.205 150.164Z" fill="#6F2A87"/>
<path opacity="0.7" d="M341.205 150.164C335.924 143.707 331.108 136.883 326.794 129.743C325.747 127.94 324.753 126.103 323.814 124.233C323.278 123.173 322.767 122.114 322.268 121.041C321.614 119.998 321.106 118.87 320.76 117.688C319.264 101.892 324.674 90.2608 319.513 77.582L298.968 85.6107C298.968 85.6107 300.713 108.201 304.703 121.764C307.196 130.155 312.781 137.41 318.179 144.13C319.862 146.224 321.483 148.381 323.166 150.488C324.849 152.595 326.544 154.303 328.153 156.285C330.584 159.29 331.382 162.17 329.549 165.71L329.237 166.271C328.714 167.194 331.157 168.241 332.703 166.271C335.196 163.055 334.847 163.254 337.017 160.511C338.338 158.853 339.847 157.046 341.156 155.525C341.787 154.777 342.138 153.832 342.147 152.853C342.156 151.875 341.823 150.923 341.205 150.164Z" fill="#BBA0C6"/>
<path opacity="0.3" d="M336.181 143.669C332.921 147.164 329.302 150.306 325.385 153.044C325.921 153.643 326.444 154.291 326.98 154.864C330.902 152.215 334.464 149.068 337.577 145.502L336.181 143.669Z" fill="#6F2A87"/>
<path opacity="0.3" d="M341.205 150.164L341.055 149.99C340.096 151.09 339.538 152.483 339.472 153.942C339.392 154.942 339.554 155.947 339.946 156.871L341.13 155.463C341.749 154.722 342.094 153.792 342.108 152.827C342.122 151.862 341.803 150.922 341.205 150.164Z" fill="#6F2A87"/>
<path d="M295.701 51.5144C293.474 54.8495 290.802 57.8651 287.76 60.4781C286.072 61.9322 284.223 63.1871 282.249 64.2181C281.212 64.7496 280.137 65.2038 279.033 65.577L278.185 65.8513L277.911 65.9261L277.325 66.0882C276.964 66.1738 276.597 66.2321 276.228 66.2627C275.176 66.3431 274.118 66.2462 273.099 65.976C271.813 65.611 270.58 65.0787 269.433 64.3927C268.51 63.8531 267.616 63.2664 266.753 62.6349C265.194 61.4755 263.704 60.2267 262.29 58.8948C259.563 56.311 257.06 53.5 254.81 50.4922C254.376 49.9062 254.161 49.1873 254.201 48.4596C254.241 47.7319 254.534 47.0409 255.029 46.506C255.524 45.9711 256.19 45.6257 256.913 45.5296C257.635 45.4334 258.368 45.5924 258.986 45.9792H259.086C262.028 47.8492 264.995 49.819 267.887 51.5768C269.358 52.437 270.78 53.3097 272.188 53.9829C272.832 54.3196 273.493 54.6193 274.171 54.8805C274.593 55.0668 275.044 55.1765 275.505 55.2046C275.579 55.2046 275.505 55.1174 275.043 55.1298C274.898 55.1211 274.752 55.1211 274.607 55.1298L274.333 55.1922L274.744 54.9802C275.298 54.6822 275.835 54.3534 276.352 53.9953C277.468 53.2088 278.511 52.3243 279.469 51.3524C281.647 49.0699 283.687 46.6595 285.578 44.1341C286.614 42.975 288.046 42.2449 289.592 42.087C291.139 41.929 292.688 42.3547 293.937 43.2804C295.186 44.2062 296.044 45.5652 296.343 47.0908C296.641 48.6165 296.359 50.1986 295.551 51.5269L295.701 51.5144Z" fill="#6F2A87"/>
<path opacity="0.7" d="M295.701 51.5144C293.474 54.8495 290.802 57.8651 287.76 60.4781C286.072 61.9322 284.223 63.1871 282.249 64.2181C281.212 64.7496 280.137 65.2038 279.033 65.577L278.185 65.8513L277.911 65.9261L277.325 66.0882C276.964 66.1738 276.597 66.2321 276.228 66.2627C275.176 66.3431 274.118 66.2462 273.099 65.976C271.813 65.611 270.58 65.0787 269.433 64.3927C268.51 63.8531 267.616 63.2664 266.753 62.6349C265.194 61.4755 263.704 60.2267 262.29 58.8948C259.563 56.311 257.06 53.5 254.81 50.4922C254.376 49.9062 254.161 49.1873 254.201 48.4596C254.241 47.7319 254.534 47.0409 255.029 46.506C255.524 45.9711 256.19 45.6257 256.913 45.5296C257.635 45.4334 258.368 45.5924 258.986 45.9792H259.086C262.028 47.8492 264.995 49.819 267.887 51.5768C269.358 52.437 270.78 53.3097 272.188 53.9829C272.832 54.3196 273.493 54.6193 274.171 54.8805C274.593 55.0668 275.044 55.1765 275.505 55.2046C275.579 55.2046 275.505 55.1174 275.043 55.1298C274.898 55.1211 274.752 55.1211 274.607 55.1298L274.333 55.1922L274.744 54.9802C275.298 54.6822 275.835 54.3534 276.352 53.9953C277.468 53.2088 278.511 52.3243 279.469 51.3524C281.647 49.0699 283.687 46.6595 285.578 44.1341C286.614 42.975 288.046 42.2449 289.592 42.087C291.139 41.929 292.688 42.3547 293.937 43.2804C295.186 44.2062 296.044 45.5652 296.343 47.0908C296.641 48.6165 296.359 50.1986 295.551 51.5269L295.701 51.5144Z" fill="#BBA0C6"/>
<path d="M250.134 43.3113L251.593 45.8047C251.593 45.8047 252.702 49.071 254.934 49.6694L260.993 47.7121L260.681 47.201C259.908 46.0291 259.996 43.7477 260.257 41.8527C260.519 39.9578 259.547 39.8954 258.824 40.3692C258.311 40.9586 257.952 41.665 257.776 42.4262C257.479 42.0145 257.15 41.6268 256.792 41.2668L254.946 39.4217C254.559 39.0434 254.044 38.8254 253.503 38.8115C252.961 38.7976 252.435 38.9889 252.029 39.3469L250.533 40.6808C250.178 41.0091 249.945 41.4482 249.873 41.9262C249.8 42.4042 249.893 42.8926 250.134 43.3113Z" fill="#6F2A87"/>
<path opacity="0.7" d="M250.134 43.3113L251.593 45.8047C251.593 45.8047 252.702 49.071 254.934 49.6694L260.993 47.7121L260.681 47.201C259.908 46.0291 259.996 43.7477 260.257 41.8527C260.519 39.9578 259.547 39.8954 258.824 40.3692C258.311 40.9586 257.952 41.665 257.776 42.4262C257.479 42.0145 257.15 41.6268 256.792 41.2668L254.946 39.4217C254.559 39.0434 254.044 38.8254 253.503 38.8115C252.961 38.7976 252.435 38.9889 252.029 39.3469L250.533 40.6808C250.178 41.0091 249.945 41.4482 249.873 41.9262C249.8 42.4042 249.893 42.8926 250.134 43.3113Z" fill="#E2D4E7"/>
<path d="M306.709 34.3353C299.989 36.1166 293.551 38.8317 287.585 42.4013C286.654 42.9838 285.924 43.837 285.492 44.8463C285.059 45.8557 284.946 46.9731 285.167 48.0488C287.573 59.8175 293.046 75.5755 298.955 85.6113L326.519 74.2042C326.706 69.3421 320.011 53.609 313.192 38.3994C311.97 35.6692 309.614 33.6371 306.709 34.3353Z" fill="#6F2A87"/>
<path opacity="0.8" d="M306.709 34.3353C299.989 36.1166 293.551 38.8317 287.585 42.4013C286.654 42.9838 285.924 43.837 285.492 44.8463C285.059 45.8557 284.946 46.9731 285.167 48.0488C287.573 59.8175 293.046 75.5755 298.955 85.6113L326.519 74.2042C326.706 69.3421 320.011 53.609 313.192 38.3994C311.97 35.6692 309.614 33.6371 306.709 34.3353Z" fill="#CEBED6"/>
<path opacity="0.3" d="M317.468 48.0358L311.995 46.2031C313.242 49.4071 317.643 53.4588 320.722 55.84C319.725 53.3466 318.615 50.7286 317.468 48.0358Z" fill="#6F2A87"/>
<path d="M304.902 21.9926C302.62 17.6542 297.696 15.4725 291.786 15.9587C286.8 16.3826 282.386 21.469 282.91 24.2117C283.434 26.9544 287.622 28.1263 288.42 29.0738L284.967 31.5672C284.558 31.8624 284.213 32.2374 283.952 32.6696C283.692 33.1017 283.522 33.5821 283.452 34.0817C283.382 34.5814 283.414 35.09 283.546 35.577C283.678 36.064 283.907 36.5193 284.219 36.9154C285.678 38.7605 287.598 40.6555 288.707 42.0518C298.257 41.8024 305.325 38.1621 307.881 34.6589C306.921 30.2208 307.121 26.3062 304.902 21.9926Z" fill="#6F2A87"/>
<path opacity="0.8" d="M304.902 21.9926C302.62 17.6542 297.696 15.4725 291.786 15.9587C286.8 16.3826 282.386 21.469 282.91 24.2117C283.434 26.9544 287.622 28.1263 288.42 29.0738L284.967 31.5672C284.558 31.8624 284.213 32.2374 283.952 32.6696C283.692 33.1017 283.522 33.5821 283.452 34.0817C283.382 34.5814 283.414 35.09 283.546 35.577C283.678 36.064 283.907 36.5193 284.219 36.9154C285.678 38.7605 287.598 40.6555 288.707 42.0518C298.257 41.8024 305.325 38.1621 307.881 34.6589C306.921 30.2208 307.121 26.3062 304.902 21.9926Z" fill="#CEBED6"/>
<path d="M300.214 24.686C300.892 26.4246 301.039 28.3252 300.637 30.1475C300.235 31.9698 299.302 33.632 297.955 34.9241C296.609 36.2161 294.91 37.0799 293.072 37.4063C291.235 37.7327 289.342 37.507 287.633 36.7579C285.924 36.0087 284.475 34.7696 283.47 33.1973C282.465 31.625 281.948 29.79 281.986 27.9242C282.024 26.0584 282.614 24.2457 283.681 22.7152C284.749 21.1846 286.246 20.0049 287.984 19.3252C290.317 18.4164 292.915 18.4705 295.208 19.4756C297.501 20.4807 299.302 22.3546 300.214 24.686Z" fill="#263238"/>
<path d="M381.161 137.037C381.024 132.936 380.837 133.297 380.725 129.844C380.65 127.724 380.637 125.368 380.625 123.336C380.621 122.371 380.284 121.437 379.67 120.692C379.057 119.947 378.205 119.437 377.259 119.247C375.613 118.91 373.955 118.599 372.272 118.25C370.115 117.788 367.984 117.29 365.877 116.679C364.231 116.205 362.61 115.681 361.002 115.096C359.394 114.51 357.586 113.849 355.916 113.076C353.946 112.241 352.001 111.343 350.081 110.408C347.924 109.386 345.793 108.314 343.661 107.229C335.458 93.6526 335.283 84.7014 326.482 74.2043L307.582 82.7566C307.582 82.7566 321.47 107.391 330.92 117.838C336.368 123.847 344.908 126.565 352.525 128.535C358.023 129.944 363.595 131.028 369.168 132.063C371.337 132.462 373.693 132.611 375.563 133.908C376.947 134.969 377.896 136.498 378.231 138.209C378.314 138.558 378.389 138.907 378.456 139.256C378.693 140.303 381.248 139.506 381.161 137.037Z" fill="#6F2A87"/>
<path opacity="0.8" d="M381.161 137.037C381.024 132.936 380.837 133.297 380.725 129.844C380.65 127.724 380.637 125.368 380.625 123.336C380.621 122.371 380.284 121.437 379.67 120.692C379.057 119.947 378.205 119.437 377.259 119.247C375.613 118.91 373.955 118.599 372.272 118.25C370.115 117.788 367.984 117.29 365.877 116.679C364.231 116.205 362.61 115.681 361.002 115.096C359.394 114.51 357.586 113.849 355.916 113.076C353.946 112.241 352.001 111.343 350.081 110.408C347.924 109.386 345.793 108.314 343.661 107.229C335.458 93.6526 335.283 84.7014 326.482 74.2043L307.582 82.7566C307.582 82.7566 321.47 107.391 330.92 117.838C336.368 123.847 344.908 126.565 352.525 128.535C358.023 129.944 363.595 131.028 369.168 132.063C371.337 132.462 373.693 132.611 375.563 133.908C376.947 134.969 377.896 136.498 378.231 138.209C378.314 138.558 378.389 138.907 378.456 139.256C378.693 140.303 381.248 139.506 381.161 137.037Z" fill="#CEBED6"/>
<path opacity="0.3" d="M371.574 118.087C370.826 117.925 370.078 117.763 369.317 117.576C369.379 121.889 367.36 129.32 366.624 131.576L368.993 132.025C370.545 127.534 371.415 122.836 371.574 118.087Z" fill="#6F2A87"/>
<path opacity="0.3" d="M380.675 123.336C380.671 122.372 380.336 121.44 379.725 120.695C379.114 119.95 378.265 119.439 377.321 119.247L376.074 119.01C376.275 120.427 377 121.717 378.107 122.625C378.818 123.283 379.671 123.769 380.6 124.046C380.675 123.822 380.675 123.573 380.675 123.336Z" fill="#6F2A87"/>
<path d="M298.455 24.7604C298.954 26.6553 296.834 28.6376 295.151 27.0044C293.58 25.3202 291.861 23.7806 290.015 22.4042C288.282 21.3195 290.588 19.4246 293.319 20.1601C294.484 20.4528 295.56 21.0245 296.455 21.826C297.35 22.6274 298.036 23.6345 298.455 24.7604Z" fill="white"/>
<path d="M298.593 85C297.72 85.3242 299.316 86.8202 299.316 86.8202C299.316 86.8202 316.769 80.8486 327.366 74.7024C327.392 74.3303 327.328 73.9575 327.181 73.6149C327.033 73.2723 326.806 72.9699 326.518 72.7327C317.449 77.3461 308.126 81.4418 298.593 85Z" fill="#6F2A87"/>
<path opacity="0.5" d="M298.593 85C297.72 85.3242 299.316 86.8202 299.316 86.8202C299.316 86.8202 316.769 80.8486 327.366 74.7024C327.392 74.3303 327.328 73.9575 327.181 73.6149C327.033 73.2723 326.806 72.9699 326.518 72.7327C317.449 77.3461 308.126 81.4418 298.593 85Z" fill="white"/>
<path d="M311.435 33.5116C314.875 35.2569 318.104 37.0896 321.408 39.1217C323.016 40.1439 324.612 41.1787 326.195 42.3007C327.779 43.4227 329.349 44.5697 330.933 45.8662L331.519 46.3524L332.254 47.0256C332.692 47.4178 333.109 47.834 333.501 48.2723C333.9 48.7087 334.236 49.1325 334.561 49.519C334.885 49.9055 335.234 50.3667 335.52 50.7657C336.682 52.3684 337.756 54.0331 338.737 55.7524C340.669 59.0865 342.336 62.5671 343.724 66.1622C343.98 66.8415 343.993 67.5886 343.761 68.2765C343.529 68.9644 343.066 69.5507 342.45 69.9356C341.835 70.3206 341.105 70.4804 340.384 70.3879C339.664 70.2955 338.998 69.9565 338.5 69.4285L338.438 69.3537C335.944 66.6983 333.538 63.9057 331.12 61.3002C328.701 58.6946 326.245 56.0516 324.213 54.8922C321.383 53.1344 318.229 51.3766 315.1 49.6561L305.675 44.4201C304.213 43.6464 303.119 42.3238 302.633 40.7433C302.147 39.1628 302.308 37.4539 303.082 35.9925C303.855 34.5311 305.178 33.4368 306.759 32.9505C308.339 32.4642 310.048 32.6257 311.509 33.3994L311.435 33.5116Z" fill="#6F2A87"/>
<path opacity="0.8" d="M311.435 33.5116C314.875 35.2569 318.104 37.0896 321.408 39.1217C323.016 40.1439 324.612 41.1787 326.195 42.3007C327.779 43.4227 329.349 44.5697 330.933 45.8662L331.519 46.3524L332.254 47.0256C332.692 47.4178 333.109 47.834 333.501 48.2723C333.9 48.7087 334.236 49.1325 334.561 49.519C334.885 49.9055 335.234 50.3667 335.52 50.7657C336.682 52.3684 337.756 54.0331 338.737 55.7524C340.669 59.0865 342.336 62.5671 343.724 66.1622C343.98 66.8415 343.993 67.5886 343.761 68.2765C343.529 68.9644 343.066 69.5507 342.45 69.9356C341.835 70.3206 341.105 70.4804 340.384 70.3879C339.664 70.2955 338.998 69.9565 338.5 69.4285L338.438 69.3537C335.944 66.6983 333.538 63.9057 331.12 61.3002C328.701 58.6946 326.245 56.0516 324.213 54.8922C321.383 53.1344 318.229 51.3766 315.1 49.6561L305.675 44.4201C304.213 43.6464 303.119 42.3238 302.633 40.7433C302.147 39.1628 302.308 37.4539 303.082 35.9925C303.855 34.5311 305.178 33.4368 306.759 32.9505C308.339 32.4642 310.048 32.6257 311.509 33.3994L311.435 33.5116Z" fill="#CEBED6"/>
<path d="M346.677 72.384L345.617 69.7286C345.617 69.7286 345.032 66.3376 342.925 65.3901L336.691 66.375L336.903 66.9236C337.477 68.1702 337.04 70.4517 336.479 72.2718C335.918 74.092 336.866 74.3289 337.664 73.9673C338.112 73.7679 338.549 72.9575 339.023 72.0973C339.255 72.5307 339.517 72.9472 339.808 73.344L341.341 75.4509C341.662 75.8875 342.135 76.1867 342.667 76.2884C343.199 76.3902 343.75 76.2869 344.209 75.9994L345.904 74.9148C346.301 74.6432 346.594 74.2448 346.734 73.7849C346.875 73.325 346.855 72.831 346.677 72.384Z" fill="#6F2A87"/>
<path opacity="0.8" d="M346.677 72.384L345.617 69.7286C345.617 69.7286 345.032 66.3376 342.925 65.3901L336.691 66.375L336.903 66.9236C337.477 68.1702 337.04 70.4517 336.479 72.2718C335.918 74.092 336.866 74.3289 337.664 73.9673C338.112 73.7679 338.549 72.9575 339.023 72.0973C339.255 72.5307 339.517 72.9472 339.808 73.344L341.341 75.4509C341.662 75.8875 342.135 76.1867 342.667 76.2884C343.199 76.3902 343.75 76.2869 344.209 75.9994L345.904 74.9148C346.301 74.6432 346.594 74.2448 346.734 73.7849C346.875 73.325 346.855 72.831 346.677 72.384Z" fill="white"/>
<path opacity="0.3" d="M306.173 47.8494L304.652 47.974L295.314 70.5141C295.824 70.5508 296.337 70.5087 296.835 70.3894C296.835 70.3894 309.003 65.8515 312.68 64.156C310.212 59.057 306.173 47.8494 306.173 47.8494Z" fill="#6F2A87"/>
<path d="M289.131 53.7585C290.266 59.6506 292.372 65.3129 295.365 70.5139C299.928 68.9431 307.532 65.976 311.223 64.2805C308.742 58.9633 306.541 53.5204 304.628 47.9739C300.725 48.2357 292.161 51.5145 289.131 53.7585Z" fill="white"/>
<path opacity="0.3" d="M298.393 58.6328C298.21 59.2425 297.851 59.7844 297.361 60.19C296.871 60.5955 296.271 60.8466 295.638 60.9113C295.005 60.9761 294.367 60.8516 293.805 60.5536C293.243 60.2557 292.781 59.7977 292.48 59.2375C292.178 58.6774 292.049 58.0403 292.109 57.4068C292.169 56.7734 292.416 56.172 292.818 55.6789C293.22 55.1858 293.76 54.823 294.368 54.6364C294.976 54.4499 295.626 54.448 296.236 54.631C297.052 54.8761 297.738 55.4352 298.142 56.1856C298.547 56.936 298.637 57.8161 298.393 58.6328Z" fill="#6F2A87"/>
<path opacity="0.6" d="M300.774 54.3436C300.725 54.5517 300.615 54.7402 300.457 54.8845C300.3 55.0287 300.102 55.1219 299.891 55.1519C299.679 55.1818 299.463 55.1471 299.272 55.0522C299.08 54.9574 298.922 54.8069 298.817 54.6204C298.713 54.434 298.667 54.2203 298.687 54.0075C298.706 53.7946 298.789 53.5926 298.925 53.4278C299.061 53.2631 299.244 53.1433 299.449 53.0842C299.655 53.0252 299.873 53.0296 300.076 53.0969C300.328 53.1777 300.541 53.3513 300.671 53.5827C300.8 53.8141 300.837 54.086 300.774 54.3436Z" fill="#6F2A87"/>
<path opacity="0.6" d="M303.568 53.2597C303.538 53.4043 303.479 53.5412 303.394 53.6617C303.309 53.7821 303.199 53.8834 303.073 53.9591C302.946 54.0348 302.805 54.0833 302.658 54.1013C302.512 54.1193 302.363 54.1066 302.222 54.0638C302.081 54.0211 301.95 53.9494 301.838 53.8532C301.726 53.757 301.636 53.6386 301.572 53.5054C301.509 53.3721 301.474 53.2272 301.47 53.0797C301.465 52.9322 301.492 52.7854 301.548 52.6488C301.588 52.5169 301.653 52.3942 301.741 52.2876C301.828 52.1811 301.936 52.0928 302.057 52.028C302.179 51.9631 302.312 51.9229 302.449 51.9096C302.587 51.8964 302.725 51.9103 302.857 51.9507C303.124 52.0315 303.348 52.2143 303.481 52.4593C303.614 52.7043 303.645 52.9919 303.568 53.2597Z" fill="#6F2A87"/>
<path opacity="0.5" d="M307.481 62.9716L295.95 67.522L295.264 65.253L306.783 60.7026L307.481 62.9716Z" fill="#6F2A87"/>
<path opacity="0.2" d="M243.865 236.234C243.839 243.493 243.137 250.734 241.771 257.864C240.3 264.272 238.014 268.959 234.914 271.926C233.47 273.36 231.755 274.491 229.87 275.256C227.984 276.02 225.965 276.401 223.931 276.377C217.523 276.377 212.632 272.882 209.257 265.892C208.664 264.637 208.16 263.341 207.749 262.015C200.622 268.136 193.986 274.805 187.902 281.962L181.282 289.766C184.844 293.377 188.955 296.402 193.462 298.73C201.225 302.744 211.414 304.756 224.031 304.764C226.25 304.764 228.394 304.702 230.476 304.577C238.109 293.283 244.425 281.153 249.301 268.423L267.814 220.152L243.865 236.234Z" fill="black"/>
<path d="M76.9702 302.097L98.7872 323.914L159.875 266.354C138.818 258.313 97.8771 281.14 76.9702 302.097Z" fill="#263238"/>
<path d="M153.055 378.144C146.086 371.162 131.238 356.327 131.238 356.327L188.798 295.239C196.789 316.246 173.962 357.224 153.055 378.144Z" fill="#263238"/>
<path d="M236.559 240.635L260.358 194.745L214.468 218.569C199.728 226.213 186.118 235.863 174.026 247.242L95.7961 320.884L134.231 359.319L207.873 281.09C219.258 268.995 228.912 255.38 236.559 240.635Z" fill="#6F2A87"/>
<path opacity="0.6" d="M236.559 240.635L260.358 194.745L214.468 218.569C199.728 226.213 186.118 235.863 174.026 247.242L95.7961 320.884L134.231 359.319L207.873 281.09C219.258 268.995 228.912 255.38 236.559 240.635Z" fill="#FFB8EF"/>
<path d="M187.688 283.496C196.57 283.496 203.77 276.296 203.77 267.414C203.77 258.532 196.57 251.332 187.688 251.332C178.806 251.332 171.606 258.532 171.606 267.414C171.606 276.296 178.806 283.496 187.688 283.496Z" fill="white"/>
<path d="M187.689 277.749C193.396 277.749 198.024 273.122 198.024 267.414C198.024 261.706 193.396 257.079 187.689 257.079C181.981 257.079 177.354 261.706 177.354 267.414C177.354 273.122 181.981 277.749 187.689 277.749Z" fill="#6F2A87"/>
<path opacity="0.3" d="M147.233 345.506L109.596 307.868L140.414 278.87L176.231 314.7L147.233 345.506Z" fill="#6F2A87"/>
<path d="M85.4851 336.529C57.3101 338.81 47.9724 356.85 44.7809 380.824C43.1602 393.054 42.4372 405.433 32.177 412.589C31.5597 413.009 31.095 413.617 30.8524 414.323C30.6098 415.028 30.6023 415.794 30.8311 416.504C31.06 417.215 31.5128 417.832 32.1217 418.263C32.7307 418.695 33.463 418.917 34.2091 418.897C72.0334 417.713 89.674 399.2 91.8931 391.47C91.3106 395.511 90.2691 399.472 88.7888 403.276C88.5167 403.948 88.4635 404.688 88.6366 405.391C88.8097 406.095 89.2004 406.726 89.7531 407.194C90.3057 407.662 90.992 407.944 91.7143 408C92.4366 408.055 93.1579 407.881 93.7756 407.503C104.385 400.858 117.699 388.615 118.585 368.756C110.78 357.698 85.4851 336.529 85.4851 336.529Z" fill="#6F2A87"/>
<path d="M85.4851 336.529C57.3101 338.81 47.9724 356.85 44.7809 380.824C43.1602 393.054 42.4372 405.433 32.177 412.589C31.5597 413.009 31.095 413.617 30.8524 414.323C30.6098 415.028 30.6023 415.794 30.8311 416.504C31.06 417.215 31.5128 417.832 32.1217 418.263C32.7307 418.695 33.463 418.917 34.2091 418.897C72.0334 417.713 89.674 399.2 91.8931 391.47C91.3106 395.511 90.2691 399.472 88.7888 403.276C88.5167 403.948 88.4635 404.688 88.6366 405.391C88.8097 406.095 89.2004 406.726 89.7531 407.194C90.3057 407.662 90.992 407.944 91.7143 408C92.4366 408.055 93.1579 407.881 93.7756 407.503C104.385 400.858 117.699 388.615 118.585 368.756C110.78 357.698 85.4851 336.529 85.4851 336.529Z" fill="#4A2146"/>
<path d="M122.961 377.271L77.8308 332.142L101.867 326.943L128.159 353.235L122.961 377.271Z" fill="#6F2A87"/>
</svg>
