<svg width="22" height="18" viewBox="0 0 22 18" fill="none" xmlns="http://www.w3.org/2000/svg">
   <path d="M11.0002 10.0002V17.0002M11.0002 10.0002L8.50021 12.0002M11.0002 10.0002L13.5002 12.0002M4.03421 7.11721C3.08842 7.3552 2.26208 7.93037 1.71046 8.73465C1.15883 9.53893 0.919888 10.517 1.03851 11.485C1.15714 12.453 1.62517 13.3444 2.35467 13.9917C3.08417 14.639 4.02494 14.9976 5.00021 15.0002H6.00021M14.8302 5.13821C14.4884 3.78478 13.6448 2.61195 12.4703 1.85746C11.2959 1.10298 9.87848 0.823297 8.50546 1.07511C7.13244 1.32692 5.90654 2.09139 5.07627 3.21354C4.24599 4.3357 3.87347 5.73157 4.03421 7.11821C4.03421 7.11821 4.18721 8.00021 4.50021 8.50021M14.8302 5.13821C15.5168 4.97347 16.2304 4.95601 16.9242 5.08697C17.618 5.21792 18.2762 5.49433 18.8554 5.89799C19.4347 6.30165 19.9219 6.82342 20.285 7.42895C20.6481 8.03447 20.8788 8.71003 20.962 9.41115C21.0452 10.1123 20.9789 10.8231 20.7676 11.4967C20.5563 12.1704 20.2047 12.7917 19.7359 13.3197C19.2672 13.8477 18.692 14.2704 18.0481 14.5601C17.4042 14.8497 16.7062 14.9997 16.0002 15.0002M14.8302 5.13821L13.5002 5.50021" stroke="#A5A2A7" stroke-width="1.7" stroke-linecap="round" stroke-linejoin="round" />
</svg>