<svg width="286" height="286" viewBox="0 0 286 286" fill="none" xmlns="http://www.w3.org/2000/svg">
   <circle cx="143" cy="143" r="143" fill="white" fill-opacity="0.01" />
   <circle cx="143" cy="143" r="105.696" fill="white" fill-opacity="0.02" />
   <circle cx="143" cy="143" r="73.3652" fill="white" fill-opacity="0.02" />
   <path d="M97.1181 151.824C99.6181 151.824 100.5 148.589 104.912 144.471C109.324 140.353 112.659 138.454 115.43 136.824C121.182 133.419 129.934 131.11 139.895 130.709C140.918 130.668 141.954 130.647 143 130.647C148.34 130.647 153.398 131.194 157.917 132.171C162.908 133.25 167.242 134.853 170.571 136.824C173.341 138.454 176.677 140.353 181.089 144.471C185.5 148.589 186.383 151.824 188.883 151.824C191.383 151.824 192.976 147.081 192.976 144.563C184.599 130.904 169.215 121.069 151.066 118.795C148.432 118.465 145.739 118.294 143 118.294C139.174 118.294 135.436 118.628 131.821 119.264C115.034 122.217 100.918 131.692 93.0244 144.563C93.0244 147.081 94.6181 151.824 97.1181 151.824Z" fill="#808080" />
   <path d="M143 93C115.386 93 93 115.386 93 143C93 143.523 93.008 144.044 93.024 144.563C100.918 131.692 115.033 122.217 131.821 119.263C135.435 118.628 139.173 118.294 143 118.294C145.738 118.294 148.431 118.465 151.066 118.795C169.215 121.069 184.599 130.904 192.976 144.563C192.992 144.044 193 143.523 193 143C193 115.386 170.614 93 143 93Z" fill="url(#paint0_linear)" />
   <path d="M151.066 118.795C148.431 118.465 145.738 118.294 143 118.294C139.173 118.294 135.435 118.628 131.82 119.264C135.783 123.558 138.854 128.683 139.895 130.709C142.843 136.224 144.313 142.865 143.441 149.03C141.382 163.589 130.353 177.706 118.441 172.118C118.441 172.118 113.441 170.5 107.558 163.883C107.558 163.883 104.617 160.255 103.735 159.324C102.591 158.117 100.647 158 99.4702 158.589C96.882 160 97.4888 163.49 98.1157 165.059C106.264 181.615 123.3 193 143 193C160.324 193 175.597 184.18 184.569 170.794C185.917 169.065 185.608 166.57 183.878 165.222C182.149 163.874 179.617 164.83 178.306 165.912C163.906 177.795 157.558 178 155.647 177.853C153.735 177.706 149.323 177.118 149.176 170.206C149.029 163.294 152.705 163.294 157.558 149.03C159.634 142.93 159.49 137.424 157.916 132.171C156.545 127.596 154.088 123.212 151.066 118.795Z" fill="url(#paint1_linear)" />
   <defs>
      <linearGradient id="paint0_linear" x1="143" y1="93" x2="143" y2="144.604" gradientUnits="userSpaceOnUse">
         <stop stop-color="white" />
         <stop offset="0.526042" stop-color="#9A9A9A" />
         <stop offset="1" stop-color="#797979" />
      </linearGradient>
      <linearGradient id="paint1_linear" x1="141.49" y1="121.868" x2="141.489" y2="193" gradientUnits="userSpaceOnUse">
         <stop stop-color="#7F7F7F" />
         <stop offset="1" stop-color="white" />
      </linearGradient>
   </defs>
</svg>