<svg width="195" height="40" viewBox="0 0 195 40" fill="none" xmlns="http://www.w3.org/2000/svg">
<path d="M1.4622 23.1328C2.34991 23.1328 2.66322 21.984 4.22976 20.5219C5.7963 19.0598 6.98064 18.3853 7.96445 17.8065C10.0069 16.5974 13.1145 15.7776 16.6517 15.6354C17.0149 15.6208 17.3827 15.6134 17.7542 15.6134C19.6502 15.6134 21.4462 15.8075 23.0508 16.1543C24.8232 16.5374 26.362 17.1067 27.544 17.8065C28.5278 18.3853 29.7122 19.0598 31.2787 20.5219C32.8452 21.984 33.1586 23.1328 34.0463 23.1328C34.934 23.1328 35.4999 21.4486 35.4999 20.5546C32.5252 15.7046 27.0626 12.2124 20.6183 11.4049C19.6828 11.2877 18.7266 11.2271 17.7542 11.2271C16.3955 11.2271 15.0681 11.3455 13.7847 11.5713C7.82375 12.6199 2.81162 15.9844 0.00860596 20.5546C0.00860596 21.4486 0.574497 23.1328 1.4622 23.1328Z" fill="#C2C2C2"/>
<path d="M17.7541 2.24561C7.9488 2.24561 0 10.1944 0 19.9997C0 20.1854 0.00284969 20.3704 0.00850766 20.5547C2.81152 15.9845 7.82365 12.62 13.7846 11.5713C15.068 11.3455 16.3954 11.2271 17.7541 11.2271C18.7265 11.2271 19.6827 11.2878 20.6182 11.405C27.0625 12.2125 32.5251 15.7046 35.4998 20.5547C35.5054 20.3704 35.5083 20.1854 35.5083 19.9997C35.5083 10.1944 27.5595 2.24561 17.7541 2.24561Z" fill="white"/>
<path d="M20.6181 11.4049C19.6826 11.2877 18.7263 11.2271 17.754 11.2271C16.3952 11.2271 15.0678 11.3455 13.7845 11.5713C15.1914 13.0959 16.282 14.916 16.6515 15.6354C17.6983 17.5935 18.2202 19.9515 17.9107 22.1406C17.1796 27.3102 13.2633 32.3231 9.0336 30.3389C9.0336 30.3389 7.25818 29.7645 5.16946 27.4146C5.16946 27.4146 4.1251 26.1265 3.81179 25.7959C3.40565 25.3673 2.71521 25.3259 2.29747 25.5348C1.37843 26.0361 1.59389 27.2754 1.8165 27.8324C4.70991 33.711 10.759 37.7538 17.754 37.7538C23.9057 37.7538 29.3288 34.6219 32.5146 29.8689C32.9933 29.2548 32.8835 28.3689 32.2694 27.8901C31.6552 27.4114 30.7563 27.7511 30.2906 28.1354C25.1775 32.3547 22.9236 32.4276 22.2448 32.3754C21.5659 32.3231 19.9994 32.1143 19.9472 29.66C19.8949 27.2058 21.2004 27.2058 22.9236 22.1406C23.6604 19.9748 23.6096 18.0197 23.0506 16.1543C22.5637 14.5297 21.6913 12.9732 20.6181 11.4049Z" fill="url(#paint0_linear)"/>
<path d="M63.7045 29C69.0227 29 72.2443 25.7102 72.2443 20.2557C72.2443 14.8182 69.0227 11.5455 63.7557 11.5455H57.517V29H63.7045ZM61.2074 25.8381V14.7074H63.5597C66.8324 14.7074 68.5625 16.3778 68.5625 20.2557C68.5625 24.1506 66.8324 25.8381 63.5511 25.8381H61.2074ZM94.6178 20.2727C94.6178 14.5625 91.0723 11.3068 86.4445 11.3068C81.7911 11.3068 78.2712 14.5625 78.2712 20.2727C78.2712 25.9574 81.7911 29.2386 86.4445 29.2386C91.0723 29.2386 94.6178 25.983 94.6178 20.2727ZM90.8763 20.2727C90.8763 23.9716 89.1206 25.9744 86.4445 25.9744C83.7598 25.9744 82.0126 23.9716 82.0126 20.2727C82.0126 16.5739 83.7598 14.571 86.4445 14.571C89.1206 14.571 90.8763 16.5739 90.8763 20.2727ZM99.5132 14.5881H104.857V29H108.505V14.5881H113.848V11.5455H99.5132V14.5881ZM134.436 17.6562C133.951 13.625 130.899 11.3068 126.86 11.3068C122.249 11.3068 118.729 14.5625 118.729 20.2727C118.729 25.9659 122.189 29.2386 126.86 29.2386C131.334 29.2386 134.036 26.2642 134.436 23.0511L130.703 23.0341C130.354 24.9006 128.888 25.9744 126.919 25.9744C124.269 25.9744 122.47 24.0057 122.47 20.2727C122.47 16.642 124.243 14.571 126.945 14.571C128.965 14.571 130.422 15.7386 130.703 17.6562H134.436ZM156.722 20.2727C156.722 14.5625 153.177 11.3068 148.549 11.3068C143.896 11.3068 140.376 14.5625 140.376 20.2727C140.376 25.9574 143.896 29.2386 148.549 29.2386C153.177 29.2386 156.722 25.983 156.722 20.2727ZM152.981 20.2727C152.981 23.9716 151.225 25.9744 148.549 25.9744C145.864 25.9744 144.117 23.9716 144.117 20.2727C144.117 16.5739 145.864 14.571 148.549 14.571C151.225 14.571 152.981 16.5739 152.981 20.2727ZM174.63 17.1875H178.38C177.903 13.7358 174.86 11.3068 170.914 11.3068C166.303 11.3068 162.749 14.6307 162.749 20.2898C162.749 25.8125 166.073 29.2386 170.991 29.2386C175.397 29.2386 178.542 26.4517 178.542 21.858V19.6591H171.238V22.4375H174.988C174.937 24.6023 173.462 25.9744 171.008 25.9744C168.238 25.9744 166.491 23.9034 166.491 20.2557C166.491 16.625 168.306 14.571 170.974 14.571C172.874 14.571 174.161 15.5511 174.63 17.1875Z" fill="white"/>
<defs>
<linearGradient id="paint0_linear" x1="17.218" y1="12.496" x2="17.2177" y2="37.7538" gradientUnits="userSpaceOnUse">
<stop stop-color="#C2C2C2"/>
<stop offset="1" stop-color="white"/>
</linearGradient>
</defs>
</svg>
