<svg width="191" height="193" viewBox="0 0 191 193" fill="none" xmlns="http://www.w3.org/2000/svg">
<path d="M49.6529 18.5255C48.0787 15.9053 44.6681 15.0443 42.1425 16.7661C31.069 24.3153 21.6717 34.1008 14.5693 45.5137C6.49062 58.4955 1.61237 73.2112 0.336539 88.4481C-0.939289 103.685 1.42383 119.007 7.23118 133.151C13.0385 147.296 22.1238 159.858 33.7385 169.802C45.3531 179.747 59.1645 186.789 74.0347 190.349C88.9048 193.908 104.408 193.883 119.267 190.276C134.125 186.669 147.914 179.582 159.497 169.601C166.72 164.124 174.304 153.615 180.615 143.28C182.458 140.263 178.823 137.664 176.422 140.26L174.44 142.402C173.616 143.294 172.13 142.899 171.857 141.716C171.55 140.382 169.767 140.115 169.071 141.294C163.622 150.534 161.51 153.253 152.27 161.215C142.016 170.052 129.809 176.326 116.655 179.519C103.501 182.713 89.776 182.735 76.6116 179.583C63.4472 176.432 51.2201 170.198 40.9377 161.394C30.6554 152.59 22.6122 141.469 17.471 128.947C12.3299 116.425 10.2378 102.861 11.3673 89.3717C12.4968 75.8826 16.8154 62.8549 23.9674 51.3623C30.1429 41.4388 38.2782 32.905 47.8545 26.2718C50.3672 24.5313 51.2271 21.1457 49.6529 18.5255Z" fill="white" fill-opacity="0.5"/>
<path d="M49.6529 18.5255C48.0787 15.9053 44.6681 15.0443 42.1425 16.7661C32.5677 23.2936 24.2339 31.5013 17.5526 41.0063C9.80896 52.0227 4.4566 64.5378 1.83974 77.7468C-0.777111 90.9558 -0.600527 104.566 2.35814 117.703C5.31681 130.84 10.9921 143.212 19.0189 154.023C27.0458 164.835 37.2466 173.847 48.9653 180.48C60.684 187.114 73.6612 191.221 87.0624 192.538C100.464 193.854 113.992 192.352 126.778 188.127C137.096 184.718 146.745 179.596 155.33 172.994C156.492 172.1 155.497 170.498 154.15 171.077C153.214 171.479 152.2 170.695 152.354 169.687L152.729 167.24C153.11 164.754 150.083 163.085 148.078 164.604C140.605 170.263 132.238 174.665 123.305 177.617C111.986 181.357 100.009 182.687 88.145 181.521C76.281 180.355 64.7924 176.719 54.4179 170.847C44.0434 164.975 35.0128 156.997 27.9066 147.425C20.8005 137.853 15.7763 126.901 13.157 115.271C10.5377 103.641 10.3814 91.5918 12.6981 79.898C15.0147 68.2042 19.7531 57.1246 26.6085 47.3719C32.4014 39.1308 39.5975 31.9913 47.8545 26.2718C50.3673 24.5313 51.2271 21.1457 49.6529 18.5255Z" fill="white" fill-opacity="0.5"/>
<path d="M127.608 11.0192C128.654 8.1468 127.176 4.95457 124.249 4.07561C111.449 0.232727 97.9698 -0.915408 84.6666 0.728301C69.5296 2.5986 55.0515 8.03026 42.4195 16.5779C29.7876 25.1254 19.3616 36.5455 11.9966 49.9016C4.63152 63.2576 0.537206 78.1692 0.0493781 93.4135C-0.438449 108.658 2.6941 123.801 9.19014 137.6C15.6862 151.4 25.3607 163.463 37.4203 172.801C49.4799 182.139 63.5812 188.485 78.5676 191.319C90.4506 193.567 102.622 193.555 114.45 191.316C117.213 190.793 117.289 187.158 114.6 186.333C112.052 185.551 111.893 182.004 114.361 180.997L120.523 178.484C107.565 182.28 93.892 182.952 80.6246 180.443C67.3572 177.934 54.8735 172.315 44.1972 164.049C33.521 155.782 24.9562 145.102 19.2053 132.886C13.4544 120.669 10.6812 107.263 11.1131 93.7676C11.5449 80.2719 15.1696 67.0708 21.6898 55.2468C28.21 43.4228 37.44 33.3127 48.623 25.7456C59.806 18.1785 72.6233 13.3699 86.024 11.7141C97.5905 10.285 109.307 11.2398 120.457 14.4971C123.391 15.3543 126.563 13.8916 127.608 11.0192Z" fill="white"/>
<circle cx="124" cy="11" r="10" fill="white"/>
</svg>
