<svg width="24" height="24" viewBox="0 0 24 24" fill="none" xmlns="http://www.w3.org/2000/svg">
<path d="M0.988222 14.1176C1.58822 14.1176 1.79999 13.3412 2.85881 12.3529C3.91763 11.3647 4.71813 10.9089 5.38308 10.5176C6.76359 9.70038 8.86402 9.14631 11.2548 9.0502C11.5003 9.04033 11.7488 9.03529 12 9.03529C13.2815 9.03529 14.4954 9.1665 15.5799 9.40091C16.7779 9.65983 17.8179 10.0447 18.6169 10.5176C19.2818 10.9089 20.0823 11.3647 21.1412 12.3529C22.2 13.3412 22.4118 14.1176 23.0118 14.1176C23.6118 14.1176 23.9942 12.9793 23.9942 12.3751C21.9837 9.09693 18.2915 6.73658 13.9358 6.19081C13.3035 6.11158 12.6572 6.07059 12 6.07059C11.0816 6.07059 10.1844 6.15063 9.31697 6.30324C5.28799 7.01203 1.90029 9.28608 0.0057373 12.3751C0.0057373 12.9793 0.388222 14.1176 0.988222 14.1176Z" fill="#4A205F"/>
<path d="M12 0C5.37258 0 0 5.37258 0 12C0 12.1255 0.0019261 12.2505 0.00575032 12.3751C1.90031 9.28609 5.288 7.01203 9.31698 6.30324C10.1844 6.15063 11.0816 6.07059 12 6.07059C12.6572 6.07059 13.3035 6.11158 13.9358 6.19081C18.2915 6.73658 21.9837 9.09693 23.9943 12.3751C23.9981 12.2505 24 12.1255 24 12C24 5.37258 18.6274 0 12 0Z" fill="url(#paint0_linear)"/>
<path d="M13.9359 6.19081C13.3036 6.11158 12.6573 6.07059 12.0001 6.07059C11.0817 6.07059 10.1845 6.15063 9.31707 6.30324C10.268 7.33375 11.0052 8.56393 11.2549 9.0502C11.9624 10.3737 12.3152 11.9674 12.106 13.4471C11.6119 16.9412 8.96479 20.3294 6.10597 18.9882C6.10597 18.9882 4.90597 18.6 3.49421 17.0118C3.49421 17.0118 2.78832 16.1411 2.57656 15.9176C2.30205 15.6279 1.83538 15.6 1.55303 15.7412C0.931853 16.08 1.07748 16.9176 1.22794 17.2941C3.1836 21.2674 7.27217 24 12.0001 24C16.158 24 19.8235 21.8831 21.9767 18.6706C22.3003 18.2555 22.2261 17.6567 21.811 17.3332C21.3959 17.0096 20.7883 17.2392 20.4736 17.4989C17.0176 20.3507 15.4942 20.4 15.0354 20.3647C14.5766 20.3294 13.5177 20.1882 13.4824 18.5294C13.4471 16.8706 14.3295 16.8706 15.4942 13.4471C15.9922 11.9832 15.9579 10.6617 15.58 9.40091C15.2509 8.30285 14.6613 7.25082 13.9359 6.19081Z" fill="url(#paint1_linear)"/>
<defs>
<linearGradient id="paint0_linear" x1="12" y1="0" x2="12" y2="12.3849" gradientUnits="userSpaceOnUse">
<stop stop-color="#C516AF"/>
<stop offset="0.526042" stop-color="#862B9F"/>
<stop offset="1" stop-color="#68338F"/>
</linearGradient>
<linearGradient id="paint1_linear" x1="11.6378" y1="6.9283" x2="11.6376" y2="24" gradientUnits="userSpaceOnUse">
<stop stop-color="#4A205F"/>
<stop offset="1" stop-color="#BF5BEC"/>
</linearGradient>
</defs>
</svg>
